<svg xmlns="http://www.w3.org/2000/svg" viewBox="0 0 1200 270"><title>diagram</title><g id="frame"><rect width="1200" height="270" fill="none"/></g><g id="dashes"><line x1="305" y1="84" x2="305" y2="82" fill="none" stroke="#ffcc01" stroke-linecap="round" stroke-linejoin="round" stroke-width="2"/><path d="M305,75.98V51a3,3,0,0,1,3-3H446a3,3,0,0,1,3,3v90a3,3,0,0,1-3,3H385.01" fill="none" stroke="#ffcc01" stroke-linecap="round" stroke-linejoin="round" stroke-width="2" stroke-dasharray="4.013 6.02"/><line x1="382" y1="144" x2="380" y2="144" fill="none" stroke="#ffcc01" stroke-linecap="round" stroke-linejoin="round" stroke-width="2"/><line x1="305" y1="128" x2="449" y2="128" fill="none" stroke="#ffcc01" stroke-linecap="round" stroke-linejoin="round" stroke-width="2" stroke-dasharray="4 6"/><line x1="433" y1="64" x2="305" y2="64" fill="none" stroke="#ffcc01" stroke-linecap="round" stroke-linejoin="round" stroke-width="2" stroke-dasharray="4 6"/><line x1="345" y1="128" x2="345" y2="144" fill="none" stroke="#ffcc01" stroke-linecap="round" stroke-linejoin="round" stroke-width="2" stroke-dasharray="4 6"/><line x1="433" y1="128" x2="433" y2="48" fill="none" stroke="#ffcc01" stroke-linecap="round" stroke-linejoin="round" stroke-width="2" stroke-dasharray="4 6"/><line x1="305" y1="109" x2="305" y2="111" fill="none" stroke="#ffcc01" stroke-linecap="round" stroke-linejoin="round" stroke-width="2"/><path d="M305,117.169V141a3,3,0,0,0,3,3h60.915" fill="none" stroke="#ffcc01" stroke-linecap="round" stroke-linejoin="round" stroke-width="2" stroke-dasharray="4.113 6.169"/><line x1="372" y1="144" x2="374" y2="144" fill="none" stroke="#ffcc01" stroke-linecap="round" stroke-linejoin="round" stroke-width="2"/></g><g id="lines"><path d="M1024,89a1,1,0,0,1-1-1V27a4,4,0,0,1,4-4h154a4,4,0,0,1,4,4,1,1,0,0,1-2,0,2,2,0,0,0-2-2H1027a2,2,0,0,0-2,2V88A1,1,0,0,1,1024,89Z" opacity="0.2"/><path d="M1027,169a4,4,0,0,1-4-4V104a1,1,0,0,1,2,0v61a2,2,0,0,0,2,2,1,1,0,0,1,0,2Z" opacity="0.2"/><path d="M1016,89a1,1,0,0,1-1-1V19a4,4,0,0,1,4-4h154a4,4,0,0,1,4,4,1,1,0,0,1-2,0,2,2,0,0,0-2-2H1019a2,2,0,0,0-2,2V88A1,1,0,0,1,1016,89Z" opacity="0.1"/><path d="M1019,161a4,4,0,0,1-4-4V104a1,1,0,0,1,2,0v53a2,2,0,0,0,2,2,1,1,0,0,1,0,2Z" opacity="0.1"/><path d="M181,161a1,1,0,0,1,0-2,2,2,0,0,0,2-2V19a2,2,0,0,0-2-2H27a2,2,0,0,0-2,2,1,1,0,0,1-2,0,4,4,0,0,1,4-4H181a4,4,0,0,1,4,4V157A4,4,0,0,1,181,161Z" opacity="0.1"/><path d="M173,169a1,1,0,0,1,0-2,2,2,0,0,0,2-2V27a2,2,0,0,0-2-2H19a2,2,0,0,0-2,2,1,1,0,0,1-2,0,4,4,0,0,1,4-4H173a4,4,0,0,1,4,4V165A4,4,0,0,1,173,169Z" opacity="0.2"/><path d="M165,177H11a4,4,0,0,1-4-4V35a4,4,0,0,1,4-4H165a4,4,0,0,1,4,4V93a1,1,0,0,1-2,0V35a2,2,0,0,0-2-2H11a2,2,0,0,0-2,2V173a2,2,0,0,0,2,2H165a2,2,0,0,0,2-2V99a1,1,0,0,1,2,0v74A4,4,0,0,1,165,177Z" opacity="0.3"/><path d="M1189,177H1035a4,4,0,0,1-4-4V108a1,1,0,0,1,2,0v65a2,2,0,0,0,2,2h154a2,2,0,0,0,2-2V35a2,2,0,0,0-2-2H1035a2,2,0,0,0-2,2V84a1,1,0,0,1-2,0V35a4,4,0,0,1,4-4h154a4,4,0,0,1,4,4V173A4,4,0,0,1,1189,177Z" opacity="0.3"/><path d="M936,177H840a1,1,0,0,1,0-2h96a7.008,7.008,0,0,0,7-7V104a1,1,0,0,1,2,0v64A9.01,9.01,0,0,1,936,177Z" opacity="0.1"/><path d="M944,89a1,1,0,0,1-1-1V24a7.008,7.008,0,0,0-7-7H272a7.008,7.008,0,0,0-7,7V88a1,1,0,0,1-2,0V24a9.011,9.011,0,0,1,9-9H936a9.01,9.01,0,0,1,9,9V88A1,1,0,0,1,944,89Z" opacity="0.1"/><path d="M368,177H272a9.011,9.011,0,0,1-9-9V104a1,1,0,0,1,2,0v64a7.008,7.008,0,0,0,7,7h96a1,1,0,0,1,0,2Z" opacity="0.1"/><path d="M824,177H384a1,1,0,0,1,0-2H824a1,1,0,0,1,0,2Z" opacity="0.1"/></g><g id="arrows"><line x1="168" y1="96" x2="304" y2="96" fill="none" stroke="#ffcc01" stroke-linecap="round" stroke-linejoin="round" stroke-width="2"/><line x1="904" y1="96" x2="1032" y2="96" fill="none" stroke="#01bbbb" stroke-linecap="round" stroke-linejoin="round" stroke-width="2"/><path d="M376,144v80a8,8,0,0,0,8,8h16" fill="none" stroke="#ffcc01" stroke-linecap="round" stroke-linejoin="round" stroke-width="2"/><path d="M808,232h16a8,8,0,0,0,8-8V144" fill="none" stroke="#01bbbb" stroke-linecap="round" stroke-linejoin="round" stroke-width="2"/><path d="M456,240l5.789,11.578A8,8,0,0,0,468.944,256H739.056a8,8,0,0,0,7.155-4.422l19.578-39.156A8,8,0,0,1,772.944,208H800a8,8,0,0,1,8,8v16" fill="none" stroke="#ff694b" stroke-linecap="round" stroke-linejoin="round" stroke-width="2"/><path d="M400,244v4a8,8,0,0,0,8,8h27.056a8,8,0,0,0,7.155-4.422l19.578-39.156A8,8,0,0,1,468.944,208H739.056a8,8,0,0,1,7.155,4.422L752,224" fill="none" stroke="#ff694b" stroke-linecap="round" stroke-linejoin="round" stroke-width="2"/><path d="M400,220v-4a8,8,0,0,1,8-8h27.056a8,8,0,0,1,7.155,4.422L448,224" fill="none" stroke="#ff694b" stroke-linecap="round" stroke-linejoin="round" stroke-width="2"/><path d="M760,240l5.789,11.578A8,8,0,0,0,772.944,256H800a8,8,0,0,0,8-8V232" fill="none" stroke="#ff694b" stroke-linecap="round" stroke-linejoin="round" stroke-width="2"/></g><g id="transformed"><path d="M844,144h57a3,3,0,0,0,3-3V99" fill="none" stroke="#01bbbb" stroke-linecap="round" stroke-linejoin="round" stroke-width="2"/><path d="M820,144H763a3,3,0,0,1-3-3V51a3,3,0,0,1,3-3H901a3,3,0,0,1,3,3V93" fill="none" stroke="#01bbbb" stroke-linecap="round" stroke-linejoin="round" stroke-width="2"/></g><g id="endcaps"><circle cx="168" cy="96" r="3" fill="#ffcc01" stroke="#ffcc01" stroke-linecap="round" stroke-linejoin="round" stroke-width="2"/><polygon points="304 92 304 100 311 96 304 92" fill="#ffcc01" stroke="#ffcc01" stroke-linecap="round" stroke-linejoin="round" stroke-width="2"/><circle cx="904" cy="96" r="3" fill="#01bbbb" stroke="#01bbbb" stroke-linecap="round" stroke-linejoin="round" stroke-width="2"/><polygon points="1032 92 1032 100 1039 96 1032 92" fill="#01bbbb" stroke="#01bbbb" stroke-linecap="round" stroke-linejoin="round" stroke-width="2"/><circle cx="376" cy="144" r="3" fill="#ffcc01" stroke="#ffcc01" stroke-linecap="round" stroke-linejoin="round" stroke-width="2"/><polygon points="400 236 400 228 407 232 400 236" fill="#ffcc01" stroke="#ffcc01" stroke-linecap="round" stroke-linejoin="round" stroke-width="2"/><circle cx="808" cy="232" r="3" fill="#01bbbb" stroke="#01bbbb" stroke-linecap="round" stroke-linejoin="round" stroke-width="2"/><polygon points="836 144 828 144 832 137 836 144" fill="#01bbbb" stroke="#01bbbb" stroke-linecap="round" stroke-linejoin="round" stroke-width="2"/></g><g id="objects"><path d="M543.717,52.5q.84,0,1.477.063a7.122,7.122,0,0,1,1.113.189,3.381,3.381,0,0,1,.826.329,2.979,2.979,0,0,1,.616.469,3.487,3.487,0,0,1,.812,1.505,8.785,8.785,0,0,1,.308,2.513,8.053,8.053,0,0,1-.119,1.4,7.617,7.617,0,0,1-.329,1.253,5.09,5.09,0,0,1-.5,1.036,3.619,3.619,0,0,1-.644.763,3.438,3.438,0,0,1-1.463.749,9.136,9.136,0,0,1-2.247.231h-3.92V52.5Zm-1.792,1.9v6.678h1.33c.354,0,.665-.009.931-.028a5.927,5.927,0,0,0,.693-.084,2.369,2.369,0,0,0,.5-.147,1.307,1.307,0,0,0,.364-.231,2.487,2.487,0,0,0,.56-1.029,6.092,6.092,0,0,0,.252-1.911,6.57,6.57,0,0,0-.175-1.659,2.487,2.487,0,0,0-.483-1,1.494,1.494,0,0,0-.91-.483,8.378,8.378,0,0,0-1.442-.1Z"/><path d="M555.645,63l-.364-1.134h-.1c-.075.093-.159.2-.252.308s-.182.217-.266.315-.159.182-.224.252a.785.785,0,0,1-.126.119,2.36,2.36,0,0,1-.693.189,6.3,6.3,0,0,1-.987.077,3.55,3.55,0,0,1-1.078-.133,1.452,1.452,0,0,1-.644-.4,1.872,1.872,0,0,1-.385-.721,3.194,3.194,0,0,1-.133-.931,2.528,2.528,0,0,1,.259-1.267,2.06,2.06,0,0,1,.581-.665,3.155,3.155,0,0,1,.686-.308,7.85,7.85,0,0,1,.952-.245q.532-.1,1.141-.189t1.253-.14a4.191,4.191,0,0,0-.049-.616.991.991,0,0,0-.175-.476.854.854,0,0,0-.539-.266,4.723,4.723,0,0,0-.833-.07q-.365,0-.742.028t-.735.07c-.238.028-.465.056-.679.084s-.406.056-.574.084v-1.5c.177-.047.392-.1.644-.161s.527-.117.826-.168.616-.093.952-.126.681-.049,1.036-.049a6.4,6.4,0,0,1,1.512.147,2.308,2.308,0,0,1,.938.441,1.9,1.9,0,0,1,.5.833,4.924,4.924,0,0,1,.175,1.463V63Zm-.378-3.528c-.252.009-.514.021-.784.035s-.527.035-.77.063-.45.058-.623.091a.822.822,0,0,0-.343.119,1.112,1.112,0,0,0-.21.784,1.093,1.093,0,0,0,.224.784.814.814,0,0,0,.357.168,2.769,2.769,0,0,0,.623.056,6.617,6.617,0,0,0,.868-.056,4.52,4.52,0,0,0,.658-.126Z"/><path d="M564.367,56.8h-2.184v3.486a2.285,2.285,0,0,0,.056.553.727.727,0,0,0,.182.343.639.639,0,0,0,.336.168,2.692,2.692,0,0,0,.518.042q.35,0,.735-.028c.257-.019.455-.037.6-.056l-.168,1.54a9.249,9.249,0,0,1-.917.189,7.54,7.54,0,0,1-1.225.091,3.765,3.765,0,0,1-1.106-.14,1.7,1.7,0,0,1-.728-.427,1.675,1.675,0,0,1-.406-.735,4.023,4.023,0,0,1-.126-1.078V56.8h-1.106l.112-1.652h.994V53.858l2.254-.42v1.708h2.506Z"/><path d="M570.863,63l-.364-1.134h-.1c-.075.093-.159.2-.252.308s-.182.217-.266.315-.159.182-.224.252a.785.785,0,0,1-.126.119,2.36,2.36,0,0,1-.693.189,6.3,6.3,0,0,1-.987.077,3.545,3.545,0,0,1-1.078-.133,1.452,1.452,0,0,1-.644-.4,1.859,1.859,0,0,1-.385-.721,3.194,3.194,0,0,1-.133-.931,2.528,2.528,0,0,1,.259-1.267,2.049,2.049,0,0,1,.581-.665,3.155,3.155,0,0,1,.686-.308,7.85,7.85,0,0,1,.952-.245q.531-.1,1.141-.189t1.253-.14a4.191,4.191,0,0,0-.049-.616.991.991,0,0,0-.175-.476.854.854,0,0,0-.539-.266,4.723,4.723,0,0,0-.833-.07q-.365,0-.742.028t-.735.07c-.238.028-.465.056-.679.084s-.406.056-.574.084v-1.5c.177-.047.392-.1.644-.161s.527-.117.826-.168.616-.093.952-.126.681-.049,1.036-.049a6.4,6.4,0,0,1,1.512.147,2.314,2.314,0,0,1,.938.441,1.9,1.9,0,0,1,.5.833,4.924,4.924,0,0,1,.175,1.463V63Zm-.378-3.528c-.252.009-.514.021-.784.035s-.528.035-.77.063-.451.058-.623.091a.822.822,0,0,0-.343.119,1.112,1.112,0,0,0-.21.784,1.093,1.093,0,0,0,.224.784.814.814,0,0,0,.357.168,2.769,2.769,0,0,0,.623.056,6.628,6.628,0,0,0,.868-.056,4.52,4.52,0,0,0,.658-.126Z"/><path d="M590.658,63h-3.416l-1.694-8.33h-.182L583.28,63h-3.374l-2.212-10.5h2.394l1.568,8.33h.266l2.016-8.33h3.234l1.708,8.33h.28L590.9,52.5h2.353Z"/><path d="M598.975,63l-.365-1.134h-.1c-.075.093-.159.2-.252.308s-.182.217-.266.315-.159.182-.224.252a.785.785,0,0,1-.126.119,2.379,2.379,0,0,1-.693.189,6.313,6.313,0,0,1-.988.077,3.543,3.543,0,0,1-1.077-.133,1.446,1.446,0,0,1-.644-.4,1.873,1.873,0,0,1-.386-.721,3.228,3.228,0,0,1-.132-.931,2.54,2.54,0,0,1,.258-1.267,2.072,2.072,0,0,1,.581-.665,3.2,3.2,0,0,1,.686-.308,7.917,7.917,0,0,1,.953-.245q.531-.1,1.141-.189t1.253-.14a4.064,4.064,0,0,0-.05-.616.981.981,0,0,0-.174-.476.857.857,0,0,0-.54-.266A4.715,4.715,0,0,0,597,56.7q-.363,0-.741.028c-.253.019-.5.042-.736.07s-.464.056-.678.084-.407.056-.574.084v-1.5c.177-.047.392-.1.644-.161s.527-.117.826-.168.615-.093.951-.126.682-.049,1.037-.049a6.4,6.4,0,0,1,1.512.147,2.314,2.314,0,0,1,.938.441,1.9,1.9,0,0,1,.5.833,4.924,4.924,0,0,1,.175,1.463V63Zm-.378-3.528q-.378.014-.785.035t-.77.063q-.363.042-.623.091a.822.822,0,0,0-.342.119,1.112,1.112,0,0,0-.21.784,1.093,1.093,0,0,0,.223.784.818.818,0,0,0,.358.168,2.769,2.769,0,0,0,.623.056,6.6,6.6,0,0,0,.867-.056,4.511,4.511,0,0,0,.659-.126Z"/><path d="M604.812,55.146l.42,1.26h.1c.047-.065.109-.154.19-.266s.16-.224.244-.336.162-.21.231-.294a.917.917,0,0,1,.148-.154,2.154,2.154,0,0,1,.574-.231,3.428,3.428,0,0,1,.91-.1,5.668,5.668,0,0,1,.727.042V57.12q-.238-.056-.6-.119a5.061,5.061,0,0,0-.854-.063,4.194,4.194,0,0,0-.923.1,2.675,2.675,0,0,0-.729.266V63h-2.24V55.146Z"/><path d="M609.068,59.318a4.808,4.808,0,0,1,.966-3.3,3.9,3.9,0,0,1,3.025-1.064,5.159,5.159,0,0,1,1.582.21,2.311,2.311,0,0,1,1.617,1.687,5.738,5.738,0,0,1,.174,1.491v1.246h-5.054a3.613,3.613,0,0,0,.1.819,1.2,1.2,0,0,0,.322.567,1.451,1.451,0,0,0,.637.336,4.106,4.106,0,0,0,1.064.112,13.844,13.844,0,0,0,1.526-.077q.7-.077,1.148-.119l-.2,1.484q-.56.154-1.323.3a9.115,9.115,0,0,1-1.715.147,5.929,5.929,0,0,1-1.834-.245,2.822,2.822,0,0,1-1.2-.728,2.784,2.784,0,0,1-.651-1.2A6.311,6.311,0,0,1,609.068,59.318Zm3.823-2.828a1.4,1.4,0,0,0-1.114.385,2.246,2.246,0,0,0-.384,1.309h2.828V57.96a1.749,1.749,0,0,0-.295-1.092A1.239,1.239,0,0,0,612.891,56.49Z"/><path d="M623.418,63V58.436a4.922,4.922,0,0,0-.063-.84.933.933,0,0,0-.259-.532,1.686,1.686,0,0,0-1.162-.308,3.741,3.741,0,0,0-.812.084,3.366,3.366,0,0,0-.657.21V63H618.2V51.744h2.269v4.522h.1q.084-.112.2-.252c.078-.093.16-.184.244-.273s.164-.166.238-.231a1.34,1.34,0,0,1,.182-.14,2.19,2.19,0,0,1,.721-.252,5.589,5.589,0,0,1,1.1-.1,3.824,3.824,0,0,1,1.12.14,1.747,1.747,0,0,1,.728.42,1.82,1.82,0,0,1,.463.924,6.842,6.842,0,0,1,.111,1.316V63Z"/><path d="M635.486,58.912a6.028,6.028,0,0,1-.322,2.072,3.2,3.2,0,0,1-.853,1.344,4.357,4.357,0,0,1-2.969.826,5.72,5.72,0,0,1-1.821-.245,2.791,2.791,0,0,1-1.119-.665,2.979,2.979,0,0,1-.651-1.12,5.788,5.788,0,0,1-.259-1.9,5.726,5.726,0,0,1,.336-2.079,3.2,3.2,0,0,1,.868-1.309,3.155,3.155,0,0,1,1.191-.651,5.928,5.928,0,0,1,1.777-.231,5.821,5.821,0,0,1,1.792.231,2.735,2.735,0,0,1,1.093.623,2.877,2.877,0,0,1,.685,1.141A6.16,6.16,0,0,1,635.486,58.912Zm-4.047,2.52a2.586,2.586,0,0,0,.771-.105,1.273,1.273,0,0,0,.532-.3,1.725,1.725,0,0,0,.358-.714,4.794,4.794,0,0,0,.132-1.246,5.229,5.229,0,0,0-.119-1.288,1.83,1.83,0,0,0-.314-.672,1.625,1.625,0,0,0-1.246-.392,2.569,2.569,0,0,0-.778.105,1.14,1.14,0,0,0-.5.287,1.593,1.593,0,0,0-.371.707,4.689,4.689,0,0,0-.147,1.295,5.975,5.975,0,0,0,.1,1.176,1.531,1.531,0,0,0,.294.7,1.325,1.325,0,0,0,.511.329A2.2,2.2,0,0,0,631.439,61.432Z"/><path d="M642.92,63l-.406-1.2H642.4c-.047.056-.117.142-.21.259s-.188.231-.287.343-.188.212-.272.3a1.131,1.131,0,0,1-.154.147,2.564,2.564,0,0,1-.687.189,6.462,6.462,0,0,1-1.05.077,3.5,3.5,0,0,1-1.105-.147,1.935,1.935,0,0,1-.729-.427,1.894,1.894,0,0,1-.5-.9,5.245,5.245,0,0,1-.133-1.253V55.146h2.254v4.578a4.908,4.908,0,0,0,.056.812.991.991,0,0,0,.238.518,1.585,1.585,0,0,0,1.106.308,4.764,4.764,0,0,0,.882-.077,5.9,5.9,0,0,0,.672-.161V55.146h2.268V63Z"/><path d="M652.678,60.578a3.432,3.432,0,0,1-.168,1.127,1.759,1.759,0,0,1-.567.8,2.671,2.671,0,0,1-1.05.483,6.885,6.885,0,0,1-1.618.161,11.051,11.051,0,0,1-1.469-.1q-.729-.1-1.218-.21V61.32c.141.028.3.056.49.084s.383.054.588.077.418.042.637.056.427.021.623.021a4.969,4.969,0,0,0,.777-.049,1.471,1.471,0,0,0,.476-.147.524.524,0,0,0,.238-.245.864.864,0,0,0,.063-.343.583.583,0,0,0-.14-.448,1.115,1.115,0,0,0-.455-.238q-.315-.1-.862-.252a7.7,7.7,0,0,1-1.294-.42,1.8,1.8,0,0,1-.735-.546,1.508,1.508,0,0,1-.287-.581,3.266,3.266,0,0,1-.092-.833,3.038,3.038,0,0,1,.168-1.036,1.826,1.826,0,0,1,.554-.784,2.687,2.687,0,0,1,1.008-.5,5.733,5.733,0,0,1,1.533-.175,13.077,13.077,0,0,1,1.5.077q.657.077,1.078.161v1.554q-.435-.07-1.015-.112t-1.183-.042a4.7,4.7,0,0,0-.756.049,1.329,1.329,0,0,0-.448.14.474.474,0,0,0-.21.231.869.869,0,0,0-.057.322,1.141,1.141,0,0,0,.022.238.353.353,0,0,0,.105.182.832.832,0,0,0,.392.252,7.637,7.637,0,0,0,.868.252,12.633,12.633,0,0,1,1.281.357,2.016,2.016,0,0,1,.763.441,1.614,1.614,0,0,1,.343.581A2.912,2.912,0,0,1,652.678,60.578Z"/><path d="M654.036,59.318a4.8,4.8,0,0,1,.966-3.3,3.894,3.894,0,0,1,3.023-1.064,5.146,5.146,0,0,1,1.582.21,2.315,2.315,0,0,1,1.618,1.687,5.65,5.65,0,0,1,.175,1.491v1.246h-5.054a3.671,3.671,0,0,0,.105.819,1.2,1.2,0,0,0,.322.567,1.445,1.445,0,0,0,.637.336,4.109,4.109,0,0,0,1.065.112A13.851,13.851,0,0,0,660,61.341q.7-.077,1.148-.119l-.2,1.484c-.374.1-.814.2-1.323.3a9.107,9.107,0,0,1-1.715.147,5.92,5.92,0,0,1-1.834-.245,2.816,2.816,0,0,1-1.2-.728,2.784,2.784,0,0,1-.651-1.2A6.353,6.353,0,0,1,654.036,59.318Zm3.821-2.828a1.4,1.4,0,0,0-1.112.385,2.237,2.237,0,0,0-.386,1.309h2.829V57.96a1.756,1.756,0,0,0-.293-1.092A1.246,1.246,0,0,0,657.857,56.49Z"/><path d="M668.9,60.578a3.406,3.406,0,0,1-.168,1.127,1.751,1.751,0,0,1-.567.8,2.66,2.66,0,0,1-1.049.483,6.882,6.882,0,0,1-1.617.161,11.081,11.081,0,0,1-1.471-.1c-.485-.065-.89-.135-1.218-.21V61.32c.14.028.3.056.49.084s.383.054.589.077.417.042.636.056.427.021.623.021a4.951,4.951,0,0,0,.777-.049,1.463,1.463,0,0,0,.476-.147.521.521,0,0,0,.239-.245.864.864,0,0,0,.062-.343.587.587,0,0,0-.14-.448,1.1,1.1,0,0,0-.455-.238q-.315-.1-.86-.252a7.59,7.59,0,0,1-1.295-.42,1.811,1.811,0,0,1-.736-.546,1.507,1.507,0,0,1-.286-.581,3.226,3.226,0,0,1-.091-.833,2.99,2.99,0,0,1,.168-1.036,1.813,1.813,0,0,1,.552-.784,2.679,2.679,0,0,1,1.008-.5,5.741,5.741,0,0,1,1.534-.175,13.1,13.1,0,0,1,1.5.077q.657.077,1.078.161v1.554q-.433-.07-1.016-.112t-1.183-.042a4.709,4.709,0,0,0-.755.049,1.336,1.336,0,0,0-.449.14.479.479,0,0,0-.21.231.869.869,0,0,0-.055.322,1.23,1.23,0,0,0,.02.238.383.383,0,0,0,.1.182.848.848,0,0,0,.392.252,7.765,7.765,0,0,0,.868.252,12.412,12.412,0,0,1,1.281.357,2.008,2.008,0,0,1,.763.441,1.6,1.6,0,0,1,.344.581A2.974,2.974,0,0,1,668.9,60.578Z"/><path d="M75.568,85.5q.84,0,1.477.063a7.122,7.122,0,0,1,1.113.189,3.381,3.381,0,0,1,.826.329,2.979,2.979,0,0,1,.616.469,3.477,3.477,0,0,1,.812,1.505,8.785,8.785,0,0,1,.308,2.513,8.053,8.053,0,0,1-.119,1.4,7.617,7.617,0,0,1-.329,1.253,5.09,5.09,0,0,1-.5,1.036,3.619,3.619,0,0,1-.644.763,3.438,3.438,0,0,1-1.463.749A9.136,9.136,0,0,1,75.414,96h-3.92V85.5Zm-1.792,1.9v6.678h1.33c.354,0,.665-.009.931-.028a5.927,5.927,0,0,0,.693-.084,2.369,2.369,0,0,0,.5-.147,1.307,1.307,0,0,0,.364-.231,2.487,2.487,0,0,0,.56-1.029,6.092,6.092,0,0,0,.252-1.911,6.524,6.524,0,0,0-.175-1.659,2.487,2.487,0,0,0-.483-1,1.494,1.494,0,0,0-.91-.483A8.378,8.378,0,0,0,75.4,87.4Z"/><path d="M87.5,96l-.364-1.134h-.1c-.075.093-.159.2-.252.308s-.182.217-.266.315-.159.182-.224.252a.7.7,0,0,1-.126.119,2.36,2.36,0,0,1-.693.189,6.3,6.3,0,0,1-.987.077,3.55,3.55,0,0,1-1.078-.133,1.452,1.452,0,0,1-.644-.4,1.872,1.872,0,0,1-.385-.721,3.194,3.194,0,0,1-.133-.931,2.528,2.528,0,0,1,.259-1.267,2.06,2.06,0,0,1,.581-.665,3.155,3.155,0,0,1,.686-.308,7.85,7.85,0,0,1,.952-.245q.532-.1,1.141-.189t1.253-.14a4.058,4.058,0,0,0-.049-.616.991.991,0,0,0-.175-.476.854.854,0,0,0-.539-.266,4.723,4.723,0,0,0-.833-.07q-.365,0-.742.028t-.735.07q-.357.042-.679.084t-.574.084v-1.5c.177-.047.392-.1.644-.161s.527-.117.826-.168.616-.093.952-.126.681-.049,1.036-.049a6.4,6.4,0,0,1,1.512.147,2.308,2.308,0,0,1,.938.441,1.893,1.893,0,0,1,.5.833,4.924,4.924,0,0,1,.175,1.463V96Zm-.378-3.528c-.252.009-.514.021-.784.035s-.527.035-.77.063-.45.058-.623.091a.822.822,0,0,0-.343.119,1.112,1.112,0,0,0-.21.784,1.093,1.093,0,0,0,.224.784.814.814,0,0,0,.357.168,2.775,2.775,0,0,0,.623.056,6.617,6.617,0,0,0,.868-.056,4.52,4.52,0,0,0,.658-.126Z"/><path d="M96.218,89.8H94.034v3.486a2.285,2.285,0,0,0,.056.553.727.727,0,0,0,.182.343.639.639,0,0,0,.336.168,2.692,2.692,0,0,0,.518.042q.349,0,.735-.028c.257-.019.455-.037.595-.056l-.168,1.54a9.249,9.249,0,0,1-.917.189,7.54,7.54,0,0,1-1.225.091,3.765,3.765,0,0,1-1.106-.14,1.705,1.705,0,0,1-.728-.427,1.675,1.675,0,0,1-.406-.735,4.023,4.023,0,0,1-.126-1.078V89.8H90.674l.112-1.652h.994V86.858l2.254-.42v1.708H96.54Z"/><path d="M102.714,96l-.364-1.134h-.1c-.075.093-.159.2-.252.308s-.182.217-.266.315-.159.182-.224.252a.785.785,0,0,1-.126.119,2.36,2.36,0,0,1-.693.189,6.3,6.3,0,0,1-.987.077,3.545,3.545,0,0,1-1.078-.133,1.452,1.452,0,0,1-.644-.4,1.872,1.872,0,0,1-.385-.721,3.194,3.194,0,0,1-.133-.931,2.528,2.528,0,0,1,.259-1.267,2.06,2.06,0,0,1,.581-.665,3.155,3.155,0,0,1,.686-.308,7.85,7.85,0,0,1,.952-.245q.531-.1,1.141-.189t1.253-.14a4.191,4.191,0,0,0-.049-.616.991.991,0,0,0-.175-.476.854.854,0,0,0-.539-.266,4.723,4.723,0,0,0-.833-.07q-.364,0-.742.028t-.735.07c-.238.028-.465.056-.679.084s-.406.056-.574.084v-1.5c.177-.047.392-.1.644-.161s.527-.117.826-.168.616-.093.952-.126.681-.049,1.036-.049a6.4,6.4,0,0,1,1.512.147,2.308,2.308,0,0,1,.938.441,1.9,1.9,0,0,1,.5.833,4.924,4.924,0,0,1,.175,1.463V96Zm-.378-3.528c-.252.009-.514.021-.784.035s-.528.035-.77.063-.45.058-.623.091a.822.822,0,0,0-.343.119,1.112,1.112,0,0,0-.21.784,1.093,1.093,0,0,0,.224.784.814.814,0,0,0,.357.168,2.769,2.769,0,0,0,.623.056,6.628,6.628,0,0,0,.868-.056,4.52,4.52,0,0,0,.658-.126Z"/><path d="M61.827,110.868h5.027l-.435,1.932h-6.86V102.3h2.268Z"/><path d="M75.743,108.712a6.032,6.032,0,0,1-.322,2.072,3.192,3.192,0,0,1-.854,1.344,4.354,4.354,0,0,1-2.968.826,5.709,5.709,0,0,1-1.82-.245,2.793,2.793,0,0,1-1.12-.665,2.966,2.966,0,0,1-.651-1.12,5.792,5.792,0,0,1-.259-1.9,5.726,5.726,0,0,1,.336-2.079,3.05,3.05,0,0,1,2.058-1.96,5.935,5.935,0,0,1,1.778-.231,5.825,5.825,0,0,1,1.792.231,2.73,2.73,0,0,1,1.092.623,2.879,2.879,0,0,1,.686,1.141A6.156,6.156,0,0,1,75.743,108.712Zm-4.046,2.52a2.584,2.584,0,0,0,.77-.105,1.273,1.273,0,0,0,.532-.3,1.713,1.713,0,0,0,.357-.714,4.756,4.756,0,0,0,.133-1.246,5.223,5.223,0,0,0-.119-1.288,1.791,1.791,0,0,0-.315-.672,1.62,1.62,0,0,0-1.246-.392,2.563,2.563,0,0,0-.777.105,1.128,1.128,0,0,0-.5.287,1.583,1.583,0,0,0-.371.707,4.684,4.684,0,0,0-.147,1.3,5.975,5.975,0,0,0,.1,1.176,1.526,1.526,0,0,0,.294.7,1.325,1.325,0,0,0,.511.329A2.22,2.22,0,0,0,71.7,111.232Z"/><path d="M82.393,112.8l-.364-1.134h-.1c-.075.093-.159.2-.252.308s-.182.217-.266.315-.159.182-.224.252a.748.748,0,0,1-.126.119,2.391,2.391,0,0,1-.693.189,6.3,6.3,0,0,1-.987.077,3.582,3.582,0,0,1-1.078-.133,1.452,1.452,0,0,1-.644-.4,1.872,1.872,0,0,1-.385-.721,3.194,3.194,0,0,1-.133-.931,2.526,2.526,0,0,1,.259-1.267,2.06,2.06,0,0,1,.581-.665,3.155,3.155,0,0,1,.686-.308,7.85,7.85,0,0,1,.952-.245q.533-.105,1.141-.189t1.253-.14a4.058,4.058,0,0,0-.049-.616.987.987,0,0,0-.175-.476.854.854,0,0,0-.539-.266,4.63,4.63,0,0,0-.833-.07q-.364,0-.742.028c-.252.018-.5.042-.735.07s-.464.056-.679.084-.406.056-.574.084v-1.5q.266-.07.644-.161t.826-.168q.448-.076.952-.126t1.036-.049a6.4,6.4,0,0,1,1.512.147,2.308,2.308,0,0,1,.938.441,1.893,1.893,0,0,1,.5.833,4.92,4.92,0,0,1,.175,1.463V112.8Zm-.378-3.528c-.252.009-.514.021-.784.035s-.527.035-.77.063-.45.058-.623.091a.822.822,0,0,0-.343.119,1.111,1.111,0,0,0-.21.784,1.1,1.1,0,0,0,.224.784.814.814,0,0,0,.357.168,2.775,2.775,0,0,0,.623.056,6.617,6.617,0,0,0,.868-.056,4.52,4.52,0,0,0,.658-.126Z"/><path d="M91.647,101.558h2.268V112.8H91.969l-.322-1.148h-.112q-.113.14-.252.294l-.273.3c-.089.1-.173.187-.252.266a1.986,1.986,0,0,1-.175.161,2.311,2.311,0,0,1-.63.2,4.692,4.692,0,0,1-.966.091,2.834,2.834,0,0,1-2.016-.658,2.725,2.725,0,0,1-.658-1.162,6.844,6.844,0,0,1-.238-2,6.386,6.386,0,0,1,.329-2.177,3.208,3.208,0,0,1,.889-1.379,3.618,3.618,0,0,1,2.478-.77,6.977,6.977,0,0,1,1.085.077q.483.076.791.147Zm-3.262,7.378a2.869,2.869,0,0,0,.462,1.946,1.107,1.107,0,0,0,.539.3,2.962,2.962,0,0,0,.763.091,4.061,4.061,0,0,0,.826-.084,3.644,3.644,0,0,0,.672-.2v-4.4c-.159-.019-.362-.037-.609-.056s-.492-.028-.735-.028a3.557,3.557,0,0,0-.784.077,1.253,1.253,0,0,0-.56.273,1.587,1.587,0,0,0-.427.749A4.81,4.81,0,0,0,88.385,108.936Z"/><path d="M95.735,109.118a4.8,4.8,0,0,1,.966-3.3,3.891,3.891,0,0,1,3.024-1.064,5.15,5.15,0,0,1,1.582.21,2.311,2.311,0,0,1,1.617,1.687,5.65,5.65,0,0,1,.175,1.491v1.246H98.045a3.613,3.613,0,0,0,.105.819,1.2,1.2,0,0,0,.322.567,1.456,1.456,0,0,0,.637.336,4.106,4.106,0,0,0,1.064.112,14.094,14.094,0,0,0,1.526-.077q.7-.076,1.148-.119l-.2,1.484q-.559.153-1.323.3a9.107,9.107,0,0,1-1.715.147,5.925,5.925,0,0,1-1.834-.245,2.826,2.826,0,0,1-1.2-.728,2.794,2.794,0,0,1-.651-1.2A6.316,6.316,0,0,1,95.735,109.118Zm3.822-2.828a1.4,1.4,0,0,0-1.113.385,2.245,2.245,0,0,0-.385,1.309h2.828v-.224a1.749,1.749,0,0,0-.294-1.092A1.24,1.24,0,0,0,99.557,106.29Z"/><path d="M106.668,104.946l.421,1.26h.1l.188-.266q.12-.168.246-.336t.231-.294a.97.97,0,0,1,.147-.154,2.154,2.154,0,0,1,.574-.231,3.433,3.433,0,0,1,.91-.105,5.657,5.657,0,0,1,.727.042v2.058c-.158-.037-.359-.077-.6-.119a5.077,5.077,0,0,0-.854-.063,4.2,4.2,0,0,0-.924.1,2.635,2.635,0,0,0-.728.266v5.7h-2.24v-7.854Z"/><path d="M117,110.378a3.433,3.433,0,0,1-.167,1.127,1.759,1.759,0,0,1-.567.805,2.685,2.685,0,0,1-1.05.483,6.882,6.882,0,0,1-1.617.161,11.081,11.081,0,0,1-1.471-.1q-.728-.1-1.217-.21V111.12q.21.042.489.084t.589.077q.308.034.636.056t.624.021a4.946,4.946,0,0,0,.776-.049,1.48,1.48,0,0,0,.476-.147.521.521,0,0,0,.239-.245.864.864,0,0,0,.063-.343.586.586,0,0,0-.14-.448,1.121,1.121,0,0,0-.455-.238c-.21-.065-.5-.149-.861-.252a7.71,7.71,0,0,1-1.295-.42,1.82,1.82,0,0,1-.736-.546,1.514,1.514,0,0,1-.286-.581,3.271,3.271,0,0,1-.092-.833,3.038,3.038,0,0,1,.168-1.036,1.82,1.82,0,0,1,.554-.784,2.675,2.675,0,0,1,1.007-.5,5.746,5.746,0,0,1,1.534-.175,13.089,13.089,0,0,1,1.5.077q.657.076,1.078.161v1.554q-.435-.07-1.015-.112t-1.183-.042a4.714,4.714,0,0,0-.756.049,1.3,1.3,0,0,0-.448.14.474.474,0,0,0-.21.231.845.845,0,0,0-.057.322,1.237,1.237,0,0,0,.021.238.383.383,0,0,0,.1.182.848.848,0,0,0,.392.252,7.73,7.73,0,0,0,.869.252,12.276,12.276,0,0,1,1.28.357,2.008,2.008,0,0,1,.764.441,1.605,1.605,0,0,1,.343.581A2.945,2.945,0,0,1,117,110.378Z"/><path d="M1092.842,100.878a3.733,3.733,0,0,1-.3,1.582,2.632,2.632,0,0,1-.707.966,2.66,2.66,0,0,1-1.113.448,7.871,7.871,0,0,1-1.436.126h-4.662V93.5h4.439a5.04,5.04,0,0,1,2.407.378,2.1,2.1,0,0,1,.869,2,2.711,2.711,0,0,1-.19,1.113,2.052,2.052,0,0,1-.342.567c-.066.047-.148.1-.245.154s-.2.112-.315.168-.221.112-.322.168-.2.1-.28.14v.1a3.921,3.921,0,0,1,.413.091c.154.042.3.089.455.14a3.549,3.549,0,0,1,.42.175,1.508,1.508,0,0,1,.322.21,1.562,1.562,0,0,1,.434.742A4.287,4.287,0,0,1,1092.842,100.878Zm-2.828-4.41a1.259,1.259,0,0,0-.379-1.05.723.723,0,0,0-.391-.147,4.609,4.609,0,0,0-.589-.035h-1.75v2.576h1.653a4.816,4.816,0,0,0,.588-.035,1.091,1.091,0,0,0,.419-.119.8.8,0,0,0,.316-.413A2.013,2.013,0,0,0,1090.014,96.468Zm.5,4.4a1.822,1.822,0,0,0-.126-.707.953.953,0,0,0-.308-.427,1.154,1.154,0,0,0-.582-.189q-.37-.034-.65-.035h-1.947v2.73l1.9.014a5.345,5.345,0,0,0,.791-.056,1.017,1.017,0,0,0,.539-.21,1.293,1.293,0,0,0,.265-.434A1.844,1.844,0,0,0,1090.518,100.864Z"/><path d="M1094.549,104V93.5h2.282V104Z"/><path d="M1110.02,95.4h-2.956V104H1104.8V95.4h-3.151l.351-1.9h8.358Z"/><path d="M1117.775,99.912a6.028,6.028,0,0,1-.322,2.072,3.2,3.2,0,0,1-.853,1.344,4.357,4.357,0,0,1-2.969.826,5.713,5.713,0,0,1-1.82-.245,2.789,2.789,0,0,1-1.12-.665,2.979,2.979,0,0,1-.651-1.12,5.788,5.788,0,0,1-.259-1.9,5.726,5.726,0,0,1,.336-2.079,3.2,3.2,0,0,1,.868-1.309,3.155,3.155,0,0,1,1.191-.651,5.928,5.928,0,0,1,1.777-.231,5.821,5.821,0,0,1,1.792.231,2.735,2.735,0,0,1,1.093.623,2.877,2.877,0,0,1,.685,1.141A6.16,6.16,0,0,1,1117.775,99.912Zm-4.046,2.52a2.579,2.579,0,0,0,.77-.105,1.273,1.273,0,0,0,.532-.3,1.725,1.725,0,0,0,.358-.714,4.794,4.794,0,0,0,.132-1.246,5.229,5.229,0,0,0-.119-1.288,1.83,1.83,0,0,0-.314-.672,1.623,1.623,0,0,0-1.246-.392,2.569,2.569,0,0,0-.778.105,1.14,1.14,0,0,0-.5.287,1.593,1.593,0,0,0-.371.707,4.689,4.689,0,0,0-.147,1.3,5.975,5.975,0,0,0,.1,1.176,1.542,1.542,0,0,0,.294.7,1.325,1.325,0,0,0,.511.329A2.2,2.2,0,0,0,1113.729,102.432Z"/><path d="M1127.211,99.912a6.028,6.028,0,0,1-.322,2.072,3.183,3.183,0,0,1-.854,1.344,4.354,4.354,0,0,1-2.968.826,5.709,5.709,0,0,1-1.82-.245,2.782,2.782,0,0,1-1.12-.665,2.939,2.939,0,0,1-.65-1.12,6.83,6.83,0,0,1,.076-3.983,3.055,3.055,0,0,1,2.058-1.96,5.939,5.939,0,0,1,1.778-.231,5.832,5.832,0,0,1,1.793.231,2.726,2.726,0,0,1,1.091.623,2.879,2.879,0,0,1,.686,1.141A6.16,6.16,0,0,1,1127.211,99.912Zm-4.046,2.52a2.591,2.591,0,0,0,.771-.105,1.275,1.275,0,0,0,.531-.3,1.713,1.713,0,0,0,.357-.714,4.745,4.745,0,0,0,.133-1.246,5.18,5.18,0,0,0-.119-1.288,1.8,1.8,0,0,0-.315-.672,1.619,1.619,0,0,0-1.246-.392,2.567,2.567,0,0,0-.777.105,1.124,1.124,0,0,0-.5.287,1.564,1.564,0,0,0-.371.707,4.646,4.646,0,0,0-.148,1.3,5.891,5.891,0,0,0,.1,1.176,1.51,1.51,0,0,0,.293.7,1.321,1.321,0,0,0,.512.329A2.187,2.187,0,0,0,1123.165,102.432Z"/><path d="M1131.215,92.744v8.68a1.138,1.138,0,0,0,.217.8.9.9,0,0,0,.666.217,3.33,3.33,0,0,0,.447-.028l.406-.056v1.512c-.215.047-.482.1-.805.161a5.21,5.21,0,0,1-.972.091,2.266,2.266,0,0,1-1.681-.532,2.572,2.572,0,0,1-.518-1.82v-9.03Z"/><path d="M1139.923,101.578a3.432,3.432,0,0,1-.168,1.127,1.759,1.759,0,0,1-.567.805,2.666,2.666,0,0,1-1.049.483,6.9,6.9,0,0,1-1.618.161,11.054,11.054,0,0,1-1.47-.1c-.486-.065-.891-.135-1.218-.21V102.32c.14.028.3.056.489.084s.383.054.589.077.417.042.637.056.427.021.623.021a4.946,4.946,0,0,0,.776-.049,1.47,1.47,0,0,0,.477-.147.519.519,0,0,0,.238-.245.864.864,0,0,0,.063-.343.587.587,0,0,0-.14-.448,1.108,1.108,0,0,0-.455-.238q-.315-.1-.86-.252a7.56,7.56,0,0,1-1.3-.42,1.815,1.815,0,0,1-.737-.546,1.521,1.521,0,0,1-.286-.581,3.27,3.27,0,0,1-.091-.833,3.014,3.014,0,0,1,.168-1.036,1.815,1.815,0,0,1,.553-.784,2.679,2.679,0,0,1,1.008-.5,5.738,5.738,0,0,1,1.533-.175,13.077,13.077,0,0,1,1.5.077q.658.077,1.078.161v1.554c-.289-.047-.628-.084-1.015-.112s-.782-.042-1.183-.042a4.714,4.714,0,0,0-.756.049,1.329,1.329,0,0,0-.448.14.474.474,0,0,0-.21.231.869.869,0,0,0-.056.322,1.148,1.148,0,0,0,.021.238.38.38,0,0,0,.1.182.858.858,0,0,0,.393.252,7.637,7.637,0,0,0,.868.252,12.456,12.456,0,0,1,1.28.357,2.021,2.021,0,0,1,.764.441,1.616,1.616,0,0,1,.344.581A2.974,2.974,0,0,1,1139.923,101.578Z"/><path d="M341.732,89.5a9.906,9.906,0,0,1,1.687.112,2.445,2.445,0,0,1,.917.322,1.962,1.962,0,0,1,.63.826,3.3,3.3,0,0,1,.252,1.358,4.294,4.294,0,0,1-.175,1.3,2.786,2.786,0,0,1-.427.875,2.291,2.291,0,0,1-.3.217c-.126.079-.266.159-.419.238s-.316.154-.484.224-.322.133-.462.189v.1c.084.038.182.084.294.14s.222.114.329.175.208.121.3.182a1.458,1.458,0,0,1,.223.175,3.778,3.778,0,0,1,.364.588q.224.42.483.987t.539,1.225q.281.659.546,1.274h-2.618q-.279-.727-.538-1.358t-.491-1.113a8.573,8.573,0,0,0-.426-.8,1.558,1.558,0,0,0-.351-.427,1,1,0,0,0-.553-.2,6.928,6.928,0,0,0-.875-.049H339.7V100H337.42V89.5Zm-2.03,4.718h1.274a5.686,5.686,0,0,0,.91-.056,1.426,1.426,0,0,0,.5-.168,1.148,1.148,0,0,0,.371-.476,2.045,2.045,0,0,0,.161-.882,2.017,2.017,0,0,0-.112-.707,1.04,1.04,0,0,0-.28-.441.9.9,0,0,0-.476-.2,4.871,4.871,0,0,0-.756-.049h-1.6Z" fill="#ffcc01"/><path d="M352.274,100l-.364-1.134h-.1c-.075.093-.159.2-.252.308s-.182.217-.266.315-.159.182-.224.252a.785.785,0,0,1-.126.119,2.36,2.36,0,0,1-.693.189,6.3,6.3,0,0,1-.987.077,3.55,3.55,0,0,1-1.078-.133,1.452,1.452,0,0,1-.644-.4,1.872,1.872,0,0,1-.385-.721,3.194,3.194,0,0,1-.133-.931,2.528,2.528,0,0,1,.259-1.267,2.06,2.06,0,0,1,.581-.665,3.155,3.155,0,0,1,.686-.308,7.85,7.85,0,0,1,.952-.245q.531-.1,1.141-.189t1.253-.14a4.191,4.191,0,0,0-.049-.616.991.991,0,0,0-.175-.476.854.854,0,0,0-.539-.266,4.723,4.723,0,0,0-.833-.07q-.364,0-.742.028t-.735.07c-.238.028-.465.056-.679.084s-.406.056-.574.084v-1.5c.177-.047.392-.1.644-.161s.527-.117.826-.168.616-.093.952-.126.681-.049,1.036-.049a6.4,6.4,0,0,1,1.512.147,2.308,2.308,0,0,1,.938.441,1.9,1.9,0,0,1,.5.833,4.924,4.924,0,0,1,.175,1.463V100Zm-.378-3.528c-.252.009-.514.021-.784.035s-.528.035-.77.063-.45.058-.623.091a.822.822,0,0,0-.343.119,1.112,1.112,0,0,0-.21.784,1.093,1.093,0,0,0,.224.784.814.814,0,0,0,.357.168,2.769,2.769,0,0,0,.623.056,6.628,6.628,0,0,0,.868-.056,4.52,4.52,0,0,0,.658-.126Z" fill="#ffcc01"/><path d="M366.358,100h-3.08l-1.232-5.908h-.154L360.31,100h-3.15l-1.568-7.854h2.268l.994,5.88h.21l1.568-5.88h2.926l1.218,5.88h.21l1.2-5.88H368.4Z" fill="#ffcc01"/><path d="M377.642,89.5q.84,0,1.477.063a7.142,7.142,0,0,1,1.113.189,3.381,3.381,0,0,1,.826.329,2.979,2.979,0,0,1,.616.469,3.487,3.487,0,0,1,.812,1.505,8.785,8.785,0,0,1,.308,2.513,8.053,8.053,0,0,1-.119,1.4,7.617,7.617,0,0,1-.329,1.253,5.09,5.09,0,0,1-.5,1.036,3.619,3.619,0,0,1-.644.763,3.438,3.438,0,0,1-1.463.749,9.136,9.136,0,0,1-2.247.231h-3.92V89.5Zm-1.792,1.9v6.678h1.33c.354,0,.665-.009.931-.028a5.927,5.927,0,0,0,.693-.084,2.369,2.369,0,0,0,.5-.147,1.307,1.307,0,0,0,.364-.231,2.487,2.487,0,0,0,.56-1.029,6.092,6.092,0,0,0,.252-1.911,6.57,6.57,0,0,0-.175-1.659,2.487,2.487,0,0,0-.483-1,1.494,1.494,0,0,0-.91-.483,8.378,8.378,0,0,0-1.442-.105Z" fill="#ffcc01"/><path d="M389.57,100l-.364-1.134h-.1c-.075.093-.159.2-.252.308s-.182.217-.266.315-.159.182-.224.252a.785.785,0,0,1-.126.119,2.36,2.36,0,0,1-.693.189,6.3,6.3,0,0,1-.987.077,3.545,3.545,0,0,1-1.078-.133,1.452,1.452,0,0,1-.644-.4,1.872,1.872,0,0,1-.385-.721,3.194,3.194,0,0,1-.133-.931,2.528,2.528,0,0,1,.259-1.267,2.049,2.049,0,0,1,.581-.665,3.155,3.155,0,0,1,.686-.308,7.85,7.85,0,0,1,.952-.245q.531-.1,1.141-.189t1.253-.14a4.191,4.191,0,0,0-.049-.616.991.991,0,0,0-.175-.476.854.854,0,0,0-.539-.266,4.723,4.723,0,0,0-.833-.07q-.365,0-.742.028t-.735.07c-.238.028-.465.056-.679.084s-.406.056-.574.084v-1.5c.177-.047.392-.1.644-.161s.527-.117.826-.168.616-.093.952-.126.681-.049,1.036-.049a6.4,6.4,0,0,1,1.512.147,2.308,2.308,0,0,1,.938.441,1.9,1.9,0,0,1,.5.833,4.924,4.924,0,0,1,.175,1.463V100Zm-.378-3.528c-.252.009-.514.021-.784.035s-.528.035-.77.063-.45.058-.623.091a.822.822,0,0,0-.343.119,1.112,1.112,0,0,0-.21.784,1.093,1.093,0,0,0,.224.784.814.814,0,0,0,.357.168,2.769,2.769,0,0,0,.623.056,6.628,6.628,0,0,0,.868-.056,4.52,4.52,0,0,0,.658-.126Z" fill="#ffcc01"/><path d="M398.292,93.8h-2.184v3.486a2.236,2.236,0,0,0,.056.553.727.727,0,0,0,.182.343.639.639,0,0,0,.336.168,2.692,2.692,0,0,0,.518.042q.349,0,.735-.028c.256-.019.455-.037.595-.056l-.168,1.54a9.31,9.31,0,0,1-.917.189,7.54,7.54,0,0,1-1.225.091,3.765,3.765,0,0,1-1.106-.14,1.7,1.7,0,0,1-.728-.427,1.675,1.675,0,0,1-.406-.735,4.023,4.023,0,0,1-.126-1.078V93.8h-1.106l.112-1.652h.994V90.858l2.254-.42v1.708h2.506Z" fill="#ffcc01"/><path d="M404.788,100l-.365-1.134h-.1c-.075.093-.159.2-.252.308s-.182.217-.266.315-.159.182-.225.252a.754.754,0,0,1-.125.119,2.379,2.379,0,0,1-.693.189,6.313,6.313,0,0,1-.988.077,3.543,3.543,0,0,1-1.077-.133,1.446,1.446,0,0,1-.644-.4,1.873,1.873,0,0,1-.386-.721,3.228,3.228,0,0,1-.132-.931,2.54,2.54,0,0,1,.258-1.267,2.072,2.072,0,0,1,.581-.665,3.2,3.2,0,0,1,.686-.308,7.917,7.917,0,0,1,.953-.245q.531-.1,1.141-.189t1.253-.14a4.064,4.064,0,0,0-.05-.616.981.981,0,0,0-.174-.476.857.857,0,0,0-.54-.266,4.715,4.715,0,0,0-.833-.07q-.363,0-.741.028c-.253.019-.5.042-.736.07s-.464.056-.678.084-.407.056-.575.084v-1.5c.178-.047.393-.1.645-.161s.527-.117.826-.168.615-.093.951-.126.682-.049,1.037-.049a6.4,6.4,0,0,1,1.512.147,2.314,2.314,0,0,1,.938.441,1.9,1.9,0,0,1,.5.833,4.924,4.924,0,0,1,.175,1.463V100Zm-.378-3.528q-.378.014-.785.035t-.77.063q-.363.042-.623.091a.822.822,0,0,0-.342.119,1.112,1.112,0,0,0-.21.784,1.093,1.093,0,0,0,.223.784.818.818,0,0,0,.358.168,2.769,2.769,0,0,0,.623.056,6.6,6.6,0,0,0,.867-.056,4.511,4.511,0,0,0,.659-.126Z" fill="#ffcc01"/><path d="M793.276,83.4h-2.954V92h-2.267V83.4H784.9l.35-1.9h8.358Z" fill="#01bbbb"/><path d="M795.614,84.146l.421,1.26h.1c.047-.065.109-.154.188-.266s.161-.224.245-.336.162-.21.231-.294a.97.97,0,0,1,.147-.154,2.177,2.177,0,0,1,.575-.231,3.433,3.433,0,0,1,.91-.105,5.668,5.668,0,0,1,.727.042V86.12c-.158-.037-.359-.077-.6-.119a5.077,5.077,0,0,0-.854-.063,4.205,4.205,0,0,0-.925.1,2.647,2.647,0,0,0-.727.266V92h-2.24V84.146Z" fill="#01bbbb"/><path d="M805.064,92l-.364-1.134h-.1l-.252.308q-.141.168-.267.315c-.084.1-.158.182-.224.252a.7.7,0,0,1-.126.119,2.36,2.36,0,0,1-.693.189,6.287,6.287,0,0,1-.986.077,3.541,3.541,0,0,1-1.078-.133,1.45,1.45,0,0,1-.645-.4,1.872,1.872,0,0,1-.385-.721,3.194,3.194,0,0,1-.133-.931,2.528,2.528,0,0,1,.259-1.267,2.06,2.06,0,0,1,.581-.665,3.2,3.2,0,0,1,.686-.308,7.917,7.917,0,0,1,.953-.245q.529-.1,1.141-.189t1.253-.14a4.064,4.064,0,0,0-.05-.616.992.992,0,0,0-.174-.476.859.859,0,0,0-.539-.266,4.743,4.743,0,0,0-.834-.07q-.363,0-.741.028c-.253.019-.5.042-.736.07s-.465.056-.678.084-.407.056-.575.084v-1.5c.177-.047.392-.1.644-.161s.527-.117.826-.168.616-.093.952-.126.681-.049,1.036-.049a6.4,6.4,0,0,1,1.512.147,2.312,2.312,0,0,1,.939.441,1.921,1.921,0,0,1,.5.833,4.929,4.929,0,0,1,.174,1.463V92Zm-.377-3.528q-.378.014-.785.035c-.27.014-.527.035-.769.063s-.451.058-.623.091a.828.828,0,0,0-.344.119,1.113,1.113,0,0,0-.209.784,1.093,1.093,0,0,0,.223.784.82.82,0,0,0,.357.168,2.769,2.769,0,0,0,.623.056,6.617,6.617,0,0,0,.868-.056,4.538,4.538,0,0,0,.659-.126Z" fill="#01bbbb"/><path d="M814.318,92V87.338a2.778,2.778,0,0,0-.084-.756,1.258,1.258,0,0,0-.252-.49.809.809,0,0,0-.433-.231,3.114,3.114,0,0,0-.672-.063,5.645,5.645,0,0,0-.84.063,4.552,4.552,0,0,0-.686.147V92H809.1V84.146H810.9l.434,1.148h.113c.046-.056.115-.133.209-.231s.188-.2.28-.294.18-.186.259-.266a1.03,1.03,0,0,1,.148-.133,2.4,2.4,0,0,1,.707-.238,5.437,5.437,0,0,1,1.1-.1,2.429,2.429,0,0,1,1.848.6,1.839,1.839,0,0,1,.449.875,5.479,5.479,0,0,1,.125,1.239V92Z" fill="#01bbbb"/><path d="M824.355,89.578a3.407,3.407,0,0,1-.167,1.127,1.759,1.759,0,0,1-.567.805,2.664,2.664,0,0,1-1.05.483,6.882,6.882,0,0,1-1.617.161,11.054,11.054,0,0,1-1.47-.1c-.486-.065-.891-.135-1.218-.21V90.32c.14.028.3.056.49.084s.383.054.588.077.418.042.636.056.428.021.624.021a4.96,4.96,0,0,0,.777-.049,1.463,1.463,0,0,0,.476-.147.526.526,0,0,0,.239-.245.882.882,0,0,0,.062-.343.587.587,0,0,0-.14-.448,1.106,1.106,0,0,0-.456-.238c-.208-.065-.5-.149-.86-.252a7.65,7.65,0,0,1-1.295-.42,1.807,1.807,0,0,1-.735-.546,1.5,1.5,0,0,1-.287-.581,3.27,3.27,0,0,1-.091-.833,3.014,3.014,0,0,1,.168-1.036,1.809,1.809,0,0,1,.554-.784,2.66,2.66,0,0,1,1.007-.5,5.736,5.736,0,0,1,1.534-.175,13.114,13.114,0,0,1,1.5.077q.655.077,1.078.161v1.554q-.435-.07-1.016-.112c-.388-.028-.781-.042-1.183-.042a4.714,4.714,0,0,0-.756.049,1.329,1.329,0,0,0-.448.14.474.474,0,0,0-.21.231.849.849,0,0,0-.056.322,1.23,1.23,0,0,0,.02.238.377.377,0,0,0,.106.182.837.837,0,0,0,.392.252,7.637,7.637,0,0,0,.868.252,12.485,12.485,0,0,1,1.281.357,2.021,2.021,0,0,1,.764.441,1.612,1.612,0,0,1,.342.581A2.945,2.945,0,0,1,824.355,89.578Z" fill="#01bbbb"/><path d="M830.5,85.8h-1.945V92h-2.241V85.8h-1.148l.126-1.652h1.022v-.77a3.763,3.763,0,0,1,.155-1.127,2.065,2.065,0,0,1,1.364-1.4,4.026,4.026,0,0,1,1.323-.189,8.848,8.848,0,0,1,1.022.056c.318.037.584.075.8.112V82.34q-.212-.013-.54-.042c-.219-.019-.46-.028-.72-.028a1.774,1.774,0,0,0-.6.084.8.8,0,0,0-.357.238.821.821,0,0,0-.168.371,2.559,2.559,0,0,0-.041.483v.7h2.225Z" fill="#01bbbb"/><path d="M839.266,87.912a6.027,6.027,0,0,1-.323,2.072,3.181,3.181,0,0,1-.853,1.344,4.356,4.356,0,0,1-2.968.826,5.7,5.7,0,0,1-1.82-.245,2.782,2.782,0,0,1-1.12-.665,2.953,2.953,0,0,1-.651-1.12,6.83,6.83,0,0,1,.076-3.983,3.059,3.059,0,0,1,2.059-1.96,5.932,5.932,0,0,1,1.777-.231,5.823,5.823,0,0,1,1.793.231,2.73,2.73,0,0,1,1.092.623,2.879,2.879,0,0,1,.686,1.141A6.16,6.16,0,0,1,839.266,87.912Zm-4.046,2.52a2.579,2.579,0,0,0,.77-.105,1.263,1.263,0,0,0,.531-.3,1.7,1.7,0,0,0,.358-.714,4.745,4.745,0,0,0,.133-1.246,5.18,5.18,0,0,0-.119-1.288,1.814,1.814,0,0,0-.315-.672,1.619,1.619,0,0,0-1.246-.392,2.558,2.558,0,0,0-.777.105,1.124,1.124,0,0,0-.5.287,1.554,1.554,0,0,0-.371.707,4.646,4.646,0,0,0-.148,1.3,5.817,5.817,0,0,0,.1,1.176,1.51,1.51,0,0,0,.293.7,1.31,1.31,0,0,0,.511.329A2.193,2.193,0,0,0,835.22,90.432Z" fill="#01bbbb"/><path d="M842.863,84.146l.421,1.26h.1c.047-.065.11-.154.188-.266s.162-.224.246-.336.161-.21.231-.294a1.032,1.032,0,0,1,.146-.154,2.177,2.177,0,0,1,.575-.231,3.433,3.433,0,0,1,.91-.105,5.673,5.673,0,0,1,.728.042V86.12q-.238-.056-.6-.119a5.1,5.1,0,0,0-.855-.063,4.212,4.212,0,0,0-.925.1,2.659,2.659,0,0,0-.727.266V92h-2.239V84.146Z" fill="#01bbbb"/><path d="M857.424,92V87.408a4.314,4.314,0,0,0-.07-.868.912.912,0,0,0-.252-.49,1.5,1.5,0,0,0-1.022-.28,3.619,3.619,0,0,0-.742.07q-.336.07-.574.14V92H852.51V87.408a2.173,2.173,0,0,0-.28-1.33,1.3,1.3,0,0,0-1.007-.308,3.419,3.419,0,0,0-.771.084c-.243.056-.438.107-.588.154V92H847.6V84.146h1.834l.406,1.148h.112c.046-.065.116-.151.21-.259s.184-.212.274-.315.17-.194.244-.273a.856.856,0,0,1,.14-.133,2.453,2.453,0,0,1,.679-.2,5.677,5.677,0,0,1,1-.084,4.063,4.063,0,0,1,1.022.1,1.585,1.585,0,0,1,.658.343,1.733,1.733,0,0,1,.5.812h.1c.047-.056.118-.138.211-.245s.19-.212.287-.315l.259-.273a.9.9,0,0,1,.14-.133,2.627,2.627,0,0,1,.7-.2,5.559,5.559,0,0,1,1.022-.091,3.941,3.941,0,0,1,1,.1,1.581,1.581,0,0,1,.657.343,1.727,1.727,0,0,1,.5.9,5.943,5.943,0,0,1,.133,1.358V92Z" fill="#01bbbb"/><path d="M861.512,88.318a4.8,4.8,0,0,1,.967-3.3A3.891,3.891,0,0,1,865.5,83.95a5.159,5.159,0,0,1,1.582.21,2.311,2.311,0,0,1,1.617,1.687,5.693,5.693,0,0,1,.175,1.491v1.246h-5.054a3.553,3.553,0,0,0,.106.819,1.2,1.2,0,0,0,.321.567,1.438,1.438,0,0,0,.638.336,4.092,4.092,0,0,0,1.063.112,13.875,13.875,0,0,0,1.527-.077q.7-.076,1.147-.119l-.2,1.484c-.373.1-.815.2-1.323.3a9.111,9.111,0,0,1-1.714.147,5.916,5.916,0,0,1-1.834-.245,2.813,2.813,0,0,1-1.2-.728,2.784,2.784,0,0,1-.651-1.2A6.311,6.311,0,0,1,861.512,88.318Zm3.822-2.828a1.394,1.394,0,0,0-1.113.385,2.245,2.245,0,0,0-.385,1.309h2.828V86.96a1.749,1.749,0,0,0-.294-1.092A1.241,1.241,0,0,0,865.334,85.49Z" fill="#01bbbb"/><path d="M875.861,80.758h2.268V92h-1.945l-.323-1.148h-.111q-.113.139-.252.294c-.094.1-.186.2-.273.3s-.173.187-.252.266a2.11,2.11,0,0,1-.176.161,2.3,2.3,0,0,1-.629.2,4.7,4.7,0,0,1-.967.091,2.83,2.83,0,0,1-2.015-.658,2.726,2.726,0,0,1-.659-1.162,6.878,6.878,0,0,1-.238-2,6.34,6.34,0,0,1,.33-2.177,3.2,3.2,0,0,1,.889-1.379,3.613,3.613,0,0,1,2.477-.77,6.967,6.967,0,0,1,1.085.077c.323.051.586.1.791.147ZM872.6,88.136a2.869,2.869,0,0,0,.462,1.946,1.093,1.093,0,0,0,.539.3,2.954,2.954,0,0,0,.762.091,4.054,4.054,0,0,0,.826-.084,3.644,3.644,0,0,0,.672-.2V85.8c-.158-.019-.361-.037-.609-.056s-.492-.028-.734-.028a3.566,3.566,0,0,0-.785.077,1.259,1.259,0,0,0-.559.273,1.587,1.587,0,0,0-.428.749A4.821,4.821,0,0,0,872.6,88.136Z" fill="#01bbbb"/><path d="M819.568,98.3q.84,0,1.477.063a7.122,7.122,0,0,1,1.113.189,3.381,3.381,0,0,1,.826.329,2.979,2.979,0,0,1,.616.469,3.477,3.477,0,0,1,.812,1.505,8.781,8.781,0,0,1,.309,2.513,8.152,8.152,0,0,1-.119,1.4,7.617,7.617,0,0,1-.331,1.253,5.062,5.062,0,0,1-.5,1.036,3.644,3.644,0,0,1-.644.763,3.432,3.432,0,0,1-1.463.749,9.136,9.136,0,0,1-2.247.231h-3.92V98.3Zm-1.793,1.9v6.678h1.33c.356,0,.666-.009.932-.028a6.151,6.151,0,0,0,.693-.084,2.429,2.429,0,0,0,.5-.147,1.331,1.331,0,0,0,.364-.231,2.487,2.487,0,0,0,.56-1.029,6.092,6.092,0,0,0,.252-1.911,6.474,6.474,0,0,0-.176-1.659,2.467,2.467,0,0,0-.482-1,1.494,1.494,0,0,0-.91-.483,8.378,8.378,0,0,0-1.442-.105Z" fill="#01bbbb"/><path d="M831.5,108.8l-.364-1.134h-.1c-.075.093-.159.2-.252.308s-.182.217-.266.315-.159.182-.224.252a.748.748,0,0,1-.126.119,2.4,2.4,0,0,1-.693.189,6.309,6.309,0,0,1-.987.077,3.582,3.582,0,0,1-1.078-.133,1.452,1.452,0,0,1-.644-.4,1.872,1.872,0,0,1-.385-.721,3.194,3.194,0,0,1-.133-.931,2.526,2.526,0,0,1,.259-1.267,2.06,2.06,0,0,1,.581-.665,3.189,3.189,0,0,1,.685-.308,7.936,7.936,0,0,1,.954-.245c.353-.07.734-.133,1.14-.189s.823-.1,1.253-.14a3.939,3.939,0,0,0-.05-.616.978.978,0,0,0-.173-.476.862.862,0,0,0-.54-.266,4.642,4.642,0,0,0-.834-.07q-.363,0-.741.028c-.253.018-.5.042-.735.07s-.465.056-.679.084-.406.056-.574.084v-1.5q.266-.07.644-.161t.826-.168q.449-.076.952-.126c.337-.033.681-.049,1.036-.049a6.4,6.4,0,0,1,1.512.147,2.308,2.308,0,0,1,.938.441,1.9,1.9,0,0,1,.5.833,4.92,4.92,0,0,1,.175,1.463V108.8Zm-.378-3.528c-.252.009-.514.021-.784.035s-.527.035-.77.063-.451.058-.623.091a.822.822,0,0,0-.343.119,1.111,1.111,0,0,0-.209.784,1.1,1.1,0,0,0,.222.784.818.818,0,0,0,.358.168,2.769,2.769,0,0,0,.623.056,6.617,6.617,0,0,0,.868-.056,4.52,4.52,0,0,0,.658-.126Z" fill="#01bbbb"/><path d="M840.219,102.6h-2.185v3.486a2.285,2.285,0,0,0,.056.553.735.735,0,0,0,.181.343.646.646,0,0,0,.336.168,2.71,2.71,0,0,0,.519.042q.35,0,.735-.028c.256-.019.455-.037.6-.056l-.168,1.54c-.243.065-.548.128-.917.189a7.54,7.54,0,0,1-1.225.091,3.765,3.765,0,0,1-1.106-.14,1.709,1.709,0,0,1-.728-.427,1.68,1.68,0,0,1-.406-.735,4.023,4.023,0,0,1-.126-1.078V102.6h-1.106l.112-1.652h.994V99.658l2.254-.42v1.708h2.506Z" fill="#01bbbb"/><path d="M846.714,108.8l-.364-1.134h-.1c-.074.093-.158.2-.252.308s-.182.217-.266.315-.159.182-.224.252a.84.84,0,0,1-.126.119,2.391,2.391,0,0,1-.693.189,6.3,6.3,0,0,1-.988.077,3.575,3.575,0,0,1-1.077-.133,1.452,1.452,0,0,1-.644-.4,1.872,1.872,0,0,1-.385-.721,3.194,3.194,0,0,1-.133-.931,2.526,2.526,0,0,1,.259-1.267,2.06,2.06,0,0,1,.581-.665,3.133,3.133,0,0,1,.686-.308,7.88,7.88,0,0,1,.951-.245q.534-.105,1.142-.189t1.253-.14a4.191,4.191,0,0,0-.049-.616.987.987,0,0,0-.176-.476.848.848,0,0,0-.539-.266,4.611,4.611,0,0,0-.832-.07q-.365,0-.742.028c-.252.018-.5.042-.735.07s-.464.056-.679.084-.406.056-.574.084v-1.5c.178-.047.392-.1.644-.161s.528-.117.826-.168.616-.093.952-.126.681-.049,1.036-.049a6.4,6.4,0,0,1,1.512.147,2.308,2.308,0,0,1,.938.441,1.893,1.893,0,0,1,.5.833,4.92,4.92,0,0,1,.175,1.463V108.8Zm-.378-3.528c-.252.009-.514.021-.784.035s-.528.035-.771.063-.449.058-.623.091a.822.822,0,0,0-.342.119,1.11,1.11,0,0,0-.211.784,1.094,1.094,0,0,0,.225.784.813.813,0,0,0,.358.168,2.763,2.763,0,0,0,.623.056,6.624,6.624,0,0,0,.867-.056,4.493,4.493,0,0,0,.658-.126Z" fill="#01bbbb"/><rect x="566.458" y="221" width="76.083" height="22" fill="none"/><path d="M585.926,229.436l2.253-4.13a2.293,2.293,0,0,0-3.11-3.11l-5.735,3.128,4.416,2.409A8.68,8.68,0,0,1,585.926,229.436Zm.241-6.144a.917.917,0,1,1-.917.916A.916.916,0,0,1,586.167,223.292Z" fill="#f64"/><path d="M570.783,232.959l-3.128,5.735a2.291,2.291,0,0,0,3.109,3.109l4.13-2.253a8.675,8.675,0,0,1-1.7-2.175Zm-1.116,7.749a.917.917,0,1,1,.916-.916A.916.916,0,0,1,569.667,240.708Z" fill="#f64"/><path d="M582.407,229.8a6.854,6.854,0,0,0-2.743-2.744l-8.9-4.855a2.292,2.292,0,0,0-3.109,3.11l4.854,8.9a6.862,6.862,0,0,0,2.744,2.744l8.9,4.854a2.292,2.292,0,0,0,3.109-3.109Zm-12.74-4.67a.917.917,0,1,1,.916-.917A.916.916,0,0,1,569.667,225.125Zm8.708,5.958a1.829,1.829,0,0,0-1.241,3.176,2.287,2.287,0,1,1,2.583-2.583A1.823,1.823,0,0,0,578.375,231.083Zm6.875,9.625a.917.917,0,1,1,.917-.916A.917.917,0,0,1,585.25,240.708Z" fill="#f64"/><path d="M607.491,223.03h3.177v15.748h-2.726l-.451-1.608h-.157c-.1.13-.222.268-.353.412L606.6,238c-.125.138-.242.262-.353.373a2.836,2.836,0,0,1-.245.225,3.252,3.252,0,0,1-.883.285,6.614,6.614,0,0,1-1.353.127,3.973,3.973,0,0,1-2.824-.921,3.81,3.81,0,0,1-.922-1.628,9.618,9.618,0,0,1-.333-2.805,8.928,8.928,0,0,1,.461-3.05,4.477,4.477,0,0,1,1.245-1.931,5.062,5.062,0,0,1,3.471-1.079,9.7,9.7,0,0,1,1.52.108q.676.108,1.108.206Zm-4.569,10.335a4.016,4.016,0,0,0,.647,2.726,1.544,1.544,0,0,0,.755.422,4.163,4.163,0,0,0,1.069.127,5.734,5.734,0,0,0,1.157-.117,5.161,5.161,0,0,0,.941-.275V230.09c-.222-.026-.507-.052-.853-.079s-.69-.039-1.03-.039a4.952,4.952,0,0,0-1.1.108,1.765,1.765,0,0,0-.784.383,2.225,2.225,0,0,0-.6,1.049A6.753,6.753,0,0,0,602.922,233.365Z"/><path d="M624.848,232.337a9.014,9.014,0,0,1-.5,3.246,4.573,4.573,0,0,1-1.323,1.951,4.327,4.327,0,0,1-1.53.775,8.255,8.255,0,0,1-2.275.264,12.421,12.421,0,0,1-2.207-.186,13.528,13.528,0,0,1-1.7-.4l-.863.431h-.568V222.649h3.176v6.413h.158q.156-.177.362-.4t.4-.431c.131-.138.255-.265.373-.383a1.649,1.649,0,0,1,.274-.235,2.416,2.416,0,0,1,.863-.3A7.119,7.119,0,0,1,621,227.16a3.724,3.724,0,0,1,2.627.823,3.506,3.506,0,0,1,.913,1.638A10.168,10.168,0,0,1,624.848,232.337Zm-3.217.471a3.973,3.973,0,0,0-.647-2.726,2.3,2.3,0,0,0-1.608-.451,8.4,8.4,0,0,0-1.383.107,7.116,7.116,0,0,0-.932.206v6.1a6.308,6.308,0,0,0,.785.1c.34.026.7.039,1.079.039a5.031,5.031,0,0,0,1.108-.108,1.761,1.761,0,0,0,.794-.382,2.078,2.078,0,0,0,.6-1.02A6.7,6.7,0,0,0,621.631,232.808Z"/><path d="M634.065,229.729h-3.06v4.883a3.191,3.191,0,0,0,.079.775,1.018,1.018,0,0,0,.255.48.9.9,0,0,0,.471.235,3.7,3.7,0,0,0,.725.06q.49,0,1.03-.04c.36-.026.638-.051.834-.079l-.236,2.158q-.51.137-1.285.265a10.6,10.6,0,0,1-1.715.127,5.287,5.287,0,0,1-1.55-.195,2.4,2.4,0,0,1-1.02-.6,2.364,2.364,0,0,1-.569-1.029,5.672,5.672,0,0,1-.176-1.51v-5.531H626.3l.157-2.314h1.392v-1.8l3.157-.588v2.393h3.511Z"/><rect x="636.125" y="241.167" width="6.417" height="0.917" fill="#f64"/><path d="M536.6,110.375l-10.4-18a3.56,3.56,0,0,0-2.8-1.6H502.6a3.56,3.56,0,0,0-2.8,1.6l-10.4,18a3.818,3.818,0,0,0,0,3.3l10.4,18a3.56,3.56,0,0,0,2.8,1.6h20.8a3.56,3.56,0,0,0,2.8-1.6l10.4-18A3.816,3.816,0,0,0,536.6,110.375Z" fill="#4584f2"/><path d="M513.2,102.975a8.813,8.813,0,0,0-8.8,8.8,9.1,9.1,0,0,0,2,5.6h0c.3.3,11.4,11.7,15.6,15.9h1.4a3.56,3.56,0,0,0,2.8-1.6l6.9-11.9-12.6-13C518.3,104.575,516.1,102.975,513.2,102.975Z" fill="#196bbc"/><path d="M513.2,120.575a8.8,8.8,0,1,1,8.8-8.8A8.813,8.813,0,0,1,513.2,120.575Zm0-15.5a6.7,6.7,0,1,0,6.7,6.7A6.7,6.7,0,0,0,513.2,105.075Z" fill="#fff"/><path d="M523.5,120.875l-3.5-3.7a8.659,8.659,0,0,0,1.9-5.4,8.8,8.8,0,1,0-8.8,8.8,8.659,8.659,0,0,0,5.4-1.9l3.4,3.6Zm-10.3-2.4a6.7,6.7,0,1,1,6.7-6.7A6.7,6.7,0,0,1,513.2,118.475Z" fill="#fff"/><rect x="512.2" y="109.475" width="1.5" height="7.2" fill="#fff"/><polygon points="508.9 114.575 510.4 116.075 510.4 111.575 508.9 111.575 508.9 114.575" fill="#fff"/><polygon points="515.5 116.075 517 114.575 517 112.775 515.5 112.775 515.5 116.075" fill="#fff"/><g id="REDSHIFT-2"><path id="polygon25" d="M648.782,96.2,632,100.263v23.379l16.781,4.059Z" fill="#205b98"/><path id="polygon27" d="M652,126.1l-3.228,1.615V96.2L652,97.818Z" fill="#5294cf"/><path id="polygon29" d="M615.224,96.2,632,100.263v23.379L615.224,127.7Z" fill="#5294cf"/><path id="polygon31" d="M612,126.1l3.224,1.615V96.2L612,97.818Z" fill="#205b98"/><path id="polygon33" d="M642.668,93.147l-6.374-3.186-2,20.963,2,23.115,6.374-3.182Z" fill="#5294cf"/><path id="polygon35" d="M621.332,93.147l6.376-3.186,2,20.891-2,23.187-6.376-3.182Z" fill="#205b98"/><path id="rect37" d="M627.708,89.961H636.3v44.078h-8.592Z" fill="#2d72b8"/></g><path d="M714.064,121.232c-5.656,1.17-6.05-.753-6.05-.753,5.971-8.861,8.467-20.105,6.32-22.86-5.881-7.5-16.057-3.958-16.226-3.857l-.056.012a19.852,19.852,0,0,0-3.778-.394,9.308,9.308,0,0,0-5.971,1.788s-18.148-7.477-17.3,9.4c.18,3.587,5.15,27.178,11.076,20.049,2.17-2.609,4.261-4.8,4.261-4.8a5.463,5.463,0,0,0,3.587.91l.1-.09a3.508,3.508,0,0,0,.045,1.012c-1.529,1.709-1.079,2-4.126,2.631-3.092.641-1.271,1.766-.09,2.069a6.282,6.282,0,0,0,7-2.271l-.09.36c.6.483,1.023,3.115.945,5.51s-.113,4.036.348,5.318.945,4.161,4.948,3.306c3.35-.72,5.093-2.575,5.329-5.69.169-2.2.563-1.877.585-3.856l.315-.934c.36-2.991.056-3.958,2.125-3.508l.506.045a11.519,11.519,0,0,0,4.678-.787c2.507-1.169,3.992-3.115,1.518-2.609Z" fill="#336791"/><path d="M697.932,139.508a5.158,5.158,0,0,1-4.906-3.759c-.642-1.588-.781-7.582-.633-12.816a.7.7,0,0,1,1.4.039c-.165,5.828.064,11.1.533,12.255.72,1.815,1.814,3.4,4.926,2.726,3-.643,4.064-1.722,4.562-4.617.394-2.259,1.135-8.552,1.229-9.753a.7.7,0,0,1,1.4.111c-.1,1.251-.837,7.536-1.245,9.881-.591,3.433-2.122,4.991-5.649,5.749A7.677,7.677,0,0,1,697.932,139.508Z" fill="#fff"/><path d="M679.782,126.583a2.753,2.753,0,0,1-.877-.145c-2.189-.729-4.269-4.279-6.184-10.549a63.6,63.6,0,0,1-2.457-11.353c-.24-4.805,1-8.206,3.686-10.109,2.251-1.594,5.4-2.079,9.375-1.44a26.1,26.1,0,0,1,5.221,1.409.7.7,0,0,1-.53,1.3h0c-.085-.035-8.581-3.437-13.258-.12-2.267,1.608-3.308,4.6-3.094,8.893a62.932,62.932,0,0,0,2.4,11.014c1.7,5.566,3.626,9.075,5.287,9.629.254.084,1.03.343,2.152-1.008,2.161-2.6,4.141-4.661,4.16-4.681a.7.7,0,0,1,1.011.971c-.02.02-1.966,2.049-4.093,4.607A3.667,3.667,0,0,1,679.782,126.583Z" fill="#fff"/><path d="M707.969,121.112a.692.692,0,0,1-.392-.12.7.7,0,0,1-.188-.973c6.033-8.936,8.157-19.726,6.348-22.035-5.376-6.861-14.54-3.947-15.343-3.671a.6.6,0,0,1-.094.038.7.7,0,0,1-.6-1.26,17.916,17.916,0,0,1,6.314-1.02,13.386,13.386,0,0,1,10.83,5.049,6.275,6.275,0,0,1,.914,3.93,25.646,25.646,0,0,1-.894,5.817,46.912,46.912,0,0,1-6.31,13.937A.7.7,0,0,1,707.969,121.112Z" fill="#fff"/><path d="M708.3,125.279a5.283,5.283,0,0,1-2.542-.486,1.346,1.346,0,0,1-.712-1.1c-.159-2.693,1.278-3.226,2.078-3.455-.1-.148-.239-.317-.378-.492a9.608,9.608,0,0,1-1.535-2.467c-.073-.177-.3-.593-.573-1.074-1.458-2.614-4.491-8.054-2.53-10.859.9-1.29,2.682-1.808,5.3-1.543a15.7,15.7,0,0,0-2.828-4.852,13.539,13.539,0,0,0-10.346-4.942,8.422,8.422,0,0,0-6.389,2.394c-3.625,3.661-3.493,10.291-3.491,10.358a.7.7,0,0,1-1.4.037c-.007-.3-.144-7.3,3.9-11.382a9.761,9.761,0,0,1,7.408-2.808,15.763,15.763,0,0,1,14.727,11.767.785.785,0,0,1-.584.931l-.255.007c-3.2-.511-4.422.173-4.886.836-1.458,2.086,1.389,7.193,2.605,9.373.314.564.541.97.645,1.223a8.278,8.278,0,0,0,1.332,2.124,3.713,3.713,0,0,1,.819,1.357c.063.1.848,1.158,5.234.26,1.15-.241,1.844-.032,2.061.621.419,1.265-1.88,2.718-3.154,3.309A11.787,11.787,0,0,1,708.3,125.279Zm-1.857-1.71a4.337,4.337,0,0,0,2.317.3,10.215,10.215,0,0,0,3.449-.718,7.732,7.732,0,0,0,2-1.293l-.032.006c-2.488.51-4.356.516-5.557.019a2.817,2.817,0,0,1-.707-.411c-.1.033-.194.061-.295.089C706.966,121.74,706.354,121.91,706.44,123.569Zm0,.049v0Zm8.4-1.817Zm-7.544-1.227v0Z" fill="#fff"/><path d="M687.87,127.25a9.239,9.239,0,0,1-2.233-.289c-.227-.059-2.178-.6-2.149-1.834.027-1.137,1.654-1.474,2.267-1.6,2.155-.446,2.295-.622,2.964-1.472.2-.251.446-.564.782-.94h0a2.082,2.082,0,0,1,2.634-.618,2.818,2.818,0,0,1,1.542,1.834,2.4,2.4,0,0,1-.3,2.089A6.535,6.535,0,0,1,687.87,127.25Zm-2.827-2.055a3.163,3.163,0,0,0,.938.407,5.553,5.553,0,0,0,6.261-2,1.043,1.043,0,0,0,.09-.882,1.461,1.461,0,0,0-.727-.927c-.4-.168-.605-.251-1.06.257-.307.343-.529.625-.725.873-.855,1.084-1.246,1.452-3.781,1.976A4.615,4.615,0,0,0,685.043,125.2Z" fill="#fff"/><path d="M689.921,122.259a.7.7,0,0,1-.691-.592c-.015-.094-.025-.189-.032-.284a6.4,6.4,0,0,1-4.451-2.02,7.279,7.279,0,0,1-1.917-6.1,28.229,28.229,0,0,0,.149-5.8c-.019-.307-.032-.529-.032-.686,0-.214,0-.782,1.84-1.717a10.21,10.21,0,0,1,3.362-1.053c2.391-.255,3.967.8,4.437,2.982,1.255,5.786.1,8.354-.742,10.229-.157.347-.3.675-.421.991l-.106.284a6.859,6.859,0,0,0-.7,2.95.7.7,0,0,1-.584.8A.814.814,0,0,1,689.921,122.259Zm-5.566-15.279c0,.111.014.249.023.405a29.97,29.97,0,0,1-.16,6.075,5.887,5.887,0,0,0,1.541,4.933,5,5,0,0,0,3.589,1.59,18.133,18.133,0,0,1,.656-1.974l.105-.281c.133-.361.29-.71.456-1.079.806-1.792,1.809-4.022.651-9.357a2.125,2.125,0,0,0-1.643-1.835C687.64,105.015,684.939,106.463,684.355,106.98Z" fill="#fff"/><path d="M688.213,106.671c-.034.225.416.843,1.012.922a1.091,1.091,0,0,0,1.125-.63c.033-.225-.416-.483-1.012-.562s-1.091.045-1.125.27Z" fill="#fff"/><path d="M689.354,107.835a1.085,1.085,0,0,1-.16-.011,1.561,1.561,0,0,1-1-.623.855.855,0,0,1-.208-.565c.066-.44.765-.55,1.387-.466a1.739,1.739,0,0,1,1.117.493.444.444,0,0,1,.1.335A1.283,1.283,0,0,1,689.354,107.835Zm-.905-1.117a1.121,1.121,0,0,0,.807.643.923.923,0,0,0,.858-.416,1.356,1.356,0,0,0-.807-.312A1.4,1.4,0,0,0,688.449,106.718Zm0-.023Z" fill="#fff"/><path d="M706.137,106.2c.033.225-.417.843-1.012.922a1.092,1.092,0,0,1-1.125-.63c-.034-.225.416-.483,1.012-.562s1.1.045,1.125.27Z" fill="#fff"/><path d="M704.991,107.246a1.175,1.175,0,0,1-1.106-.738.322.322,0,0,1,.072-.246,2.1,2.1,0,0,1,2.168-.29.316.316,0,0,1,.128.212.776.776,0,0,1-.186.475,1.454,1.454,0,0,1-.927.578A1.254,1.254,0,0,1,704.991,107.246Zm.375-1.225a2.631,2.631,0,0,0-.339.024,1.445,1.445,0,0,0-.883.357.107.107,0,0,0-.028.072.985.985,0,0,0,.993.531,1.234,1.234,0,0,0,.771-.487.558.558,0,0,0,.141-.3v-.006a.1.1,0,0,0-.04-.055A1.1,1.1,0,0,0,705.366,106.021Z" fill="#fff"/><path d="M706.99,119.4a.689.689,0,0,1-.389-.119.7.7,0,0,1-.192-.972c1.37-2.041,1.119-4.135.875-6.161a17.6,17.6,0,0,1-.184-2.624,18.591,18.591,0,0,1,.251-2.3,11.692,11.692,0,0,0,.2-2.572.7.7,0,0,1,1.4-.079,12.964,12.964,0,0,1-.214,2.865,17.438,17.438,0,0,0-.235,2.135,16.291,16.291,0,0,0,.175,2.41c.261,2.173.557,4.636-1.1,7.109A.7.7,0,0,1,706.99,119.4Z" fill="#fff"/><path d="M567.985,105.711a2.064,2.064,0,0,1-1.01-.265l-9.133-5.158a1.951,1.951,0,0,1-.937-1.2,1.9,1.9,0,0,1,.2-1.464,2.031,2.031,0,0,1,1.75-.984,2.061,2.061,0,0,1,1.011.266l6.185,3.491V93.37a2,2,0,0,1,4.008,0v10.337a1.9,1.9,0,0,1-.641,1.426,2.078,2.078,0,0,1-1.435.578Z" fill="#29b5e8"/><path d="M578.127,105.711a2.032,2.032,0,0,1-1.749-.983,1.879,1.879,0,0,1-.258-1.159l0-10.2a2,2,0,0,1,4.007,0v6.989l6.115-3.452a2.064,2.064,0,0,1,1.01-.265,2.032,2.032,0,0,1,1.751.983,1.9,1.9,0,0,1,.2,1.467,1.941,1.941,0,0,1-.937,1.2l-9.133,5.157a2.062,2.062,0,0,1-1.012.266Z" fill="#29b5e8"/><path d="M578.052,112.364v-.9a.977.977,0,0,0-.261-.614l-3.623-3.544a1.029,1.029,0,0,0-.628-.256h-.922a1.035,1.035,0,0,0-.628.256l-3.623,3.544a.98.98,0,0,0-.261.614v.9a.993.993,0,0,0,.261.616l3.623,3.543a1.033,1.033,0,0,0,.628.255h.922a1.028,1.028,0,0,0,.628-.255l3.623-3.543A.985.985,0,0,0,578.052,112.364Zm-3.233-.429a.718.718,0,0,1-.191.449l-1.068,1.046a.754.754,0,0,1-.461.186h-.04a.754.754,0,0,1-.461-.186l-1.068-1.046a.72.72,0,0,1-.191-.449v-.041a.723.723,0,0,1,.191-.451L572.6,110.4a.761.761,0,0,1,.461-.188h.04a.756.756,0,0,1,.461.188l1.068,1.044a.725.725,0,0,1,.191.451Z" fill="#29b5e8"/><path d="M554.132,119.088a2.036,2.036,0,0,1-1.75-.985,1.889,1.889,0,0,1-.2-1.466,1.949,1.949,0,0,1,.936-1.2l6.2-3.5-6.2-3.5a1.942,1.942,0,0,1-.937-1.2,1.889,1.889,0,0,1,.2-1.464,2.03,2.03,0,0,1,1.75-.984,2.061,2.061,0,0,1,1.011.266l9.134,5.157a1.987,1.987,0,0,1,0,3.454l-9.134,5.156A2.051,2.051,0,0,1,554.132,119.088Z" fill="#29b5e8"/><path d="M591.982,119.087a2.062,2.062,0,0,1-1.012-.266l-9.132-5.157a1.987,1.987,0,0,1,0-3.453l9.132-5.157a2.058,2.058,0,0,1,1.011-.266,2.034,2.034,0,0,1,1.752.984,1.9,1.9,0,0,1,.2,1.466,1.949,1.949,0,0,1-.938,1.2l-6.2,3.5,6.2,3.5a1.946,1.946,0,0,1,.938,1.2,1.9,1.9,0,0,1-.2,1.463,2.036,2.036,0,0,1-1.751.984Z" fill="#29b5e8"/><path d="M568.056,132.4a1.977,1.977,0,0,1-2-1.945v-6.982l-6.185,3.491a2.054,2.054,0,0,1-1.01.266,2.032,2.032,0,0,1-1.751-.983,1.894,1.894,0,0,1-.2-1.464,1.956,1.956,0,0,1,.938-1.2l9.133-5.158a2.069,2.069,0,0,1,1.012-.265,2.011,2.011,0,0,1,.372.034,1.959,1.959,0,0,1,1.7,1.924v10.337A1.977,1.977,0,0,1,568.056,132.4Z" fill="#29b5e8"/><path d="M578.127,132.4a1.977,1.977,0,0,1-2-1.945V120.374a1.963,1.963,0,0,1,.253-1.226,2.053,2.053,0,0,1,2.762-.719l9.133,5.158a1.942,1.942,0,0,1,.937,1.2,1.889,1.889,0,0,1-.2,1.464,2.031,2.031,0,0,1-1.751.984h0a2.056,2.056,0,0,1-1.01-.265l-6.113-3.453v6.943A1.978,1.978,0,0,1,578.127,132.4Z" fill="#29b5e8"/></g></svg>