<svg id="diagram" xmlns="http://www.w3.org/2000/svg" viewBox="0 0 673 270"><defs><style>.cls-1,.cls-11,.cls-2,.cls-5,.cls-6,.cls-7,.cls-8{fill:none;}.cls-1,.cls-3{stroke:#cfd4d7;stroke-miterlimit:10;}.cls-3{fill:#f9fafb;}.cls-4{fill:#fff8db;}.cls-11,.cls-5,.cls-6,.cls-8{stroke:#ffb100;}.cls-11,.cls-5,.cls-6,.cls-7,.cls-8{stroke-linecap:round;stroke-linejoin:round;}.cls-11,.cls-6{stroke-dasharray:3.99 5.98;}.cls-7{stroke:#bec5c9;}.cls-11,.cls-7,.cls-8{stroke-width:2px;}.cls-9{fill:#8b969e;}.cls-10{fill:#ffb100;}</style></defs><title>premodern-data-stack</title><path class="cls-1" d="M264,10V193.33c0,9.21,1.24,16.67,2.76,16.67H493.24c1.52,0,2.76-7.46,2.76-16.67V10"/><rect class="cls-2" width="673" height="270"/><path class="cls-3" d="M265.38,226H494.62c.76,0,1.38,1.79,1.38,4v32c0,2.21-.62,4-1.38,4H265.38c-.76,0-1.38-1.79-1.38-4V230C264,227.79,264.62,226,265.38,226Z"/><path class="cls-4" d="M184,70v33a3,3,0,0,0,3,3H309a3,3,0,0,0,3-3V13a3,3,0,0,0-3-3H187a3,3,0,0,0-3,3V46"/><line class="cls-5" x1="184" y1="70" x2="184" y2="72"/><path class="cls-6" d="M184,78v25a3,3,0,0,0,3,3H309a3,3,0,0,0,3-3V13a3,3,0,0,0-3-3H187a3,3,0,0,0-3,3V41"/><line class="cls-5" x1="184" y1="44" x2="184" y2="46"/><path class="cls-3" d="M136,61v42a3,3,0,0,1-3,3H11a3,3,0,0,1-3-3V13a3,3,0,0,1,3-3H133a3,3,0,0,1,3,3V55"/><path class="cls-3" d="M535,70v33a3,3,0,0,0,3,3H660a3,3,0,0,0,3-3V13a3,3,0,0,0-3-3H538a3,3,0,0,0-3,3V46"/><path class="cls-7" d="M137,58a1,1,0,1,0-1,1,1,1,0,0,0,1-1h2a3,3,0,1,1-3-3,3,3,0,0,1,3,3h45V54l7,4-7,4V58h2l-1,2,3-2-3-2,1,2"/><path class="cls-8" d="M488,58a1,1,0,1,0-1,1,1,1,0,0,0,1-1h2a3,3,0,1,1-3-3,3,3,0,0,1,3,3h45V54l7,4-7,4V58h2l-1,2,3-2-3-2,1,2"/><path class="cls-9" d="M327.19,240.33c.56,0,1.06,0,1.48.06a6.77,6.77,0,0,1,1.11.19,3.13,3.13,0,0,1,.83.33,3.07,3.07,0,0,1,.62.47,3.43,3.43,0,0,1,.81,1.5,9.28,9.28,0,0,1,.31,2.51,8.18,8.18,0,0,1-.12,1.4,9,9,0,0,1-.33,1.26,5.45,5.45,0,0,1-.5,1,3.69,3.69,0,0,1-.65.77,3.51,3.51,0,0,1-1.46.75,9.45,9.45,0,0,1-2.25.23h-3.92v-10.5Zm-1.79,1.9v6.67h1.33c.36,0,.67,0,.93,0s.47,0,.7-.09a3.12,3.12,0,0,0,.5-.14,1.41,1.41,0,0,0,.36-.24,2.38,2.38,0,0,0,.56-1,6.22,6.22,0,0,0,.25-1.92,6.56,6.56,0,0,0-.17-1.65,2.46,2.46,0,0,0-.49-1,1.47,1.47,0,0,0-.91-.49,8.64,8.64,0,0,0-1.44-.1Z"/><path class="cls-9" d="M339.12,250.83l-.36-1.14h-.1l-.25.31-.27.32-.22.25-.13.12a2.72,2.72,0,0,1-.69.19,6.59,6.59,0,0,1-1,.07,3.59,3.59,0,0,1-1.08-.13,1.39,1.39,0,0,1-.64-.4,2,2,0,0,1-.39-.72,3.26,3.26,0,0,1-.13-.93,2.64,2.64,0,0,1,.26-1.27,1.94,1.94,0,0,1,.58-.66,3,3,0,0,1,.69-.31,7.81,7.81,0,0,1,1-.25l1.14-.19c.41-.06.82-.1,1.25-.14a3.14,3.14,0,0,0-.05-.61.93.93,0,0,0-.17-.48.84.84,0,0,0-.54-.26,3.83,3.83,0,0,0-.83-.07c-.25,0-.49,0-.74,0l-.74.07-.68.09-.57.08v-1.5l.64-.16c.25-.06.53-.12.83-.17s.61-.09.95-.12a8.84,8.84,0,0,1,1-.05,7,7,0,0,1,1.51.14,2.41,2.41,0,0,1,.94.45,2,2,0,0,1,.5.83,4.79,4.79,0,0,1,.17,1.46v5.16Zm-.38-3.53-.78,0-.77.07a4.36,4.36,0,0,0-.62.09.73.73,0,0,0-.35.12,1.13,1.13,0,0,0-.21.78,1.05,1.05,0,0,0,.23.78.68.68,0,0,0,.35.17,3.36,3.36,0,0,0,.63.06,6.36,6.36,0,0,0,.87-.06,4.66,4.66,0,0,0,.65-.12Z"/><path class="cls-9" d="M347.84,244.63h-2.18v3.48a2.14,2.14,0,0,0,.06.56.71.71,0,0,0,.18.34.62.62,0,0,0,.33.17,3,3,0,0,0,.52,0l.74,0,.6-.06-.17,1.54a8.08,8.08,0,0,1-.92.19,6.21,6.21,0,0,1-1.22.09,3.46,3.46,0,0,1-1.11-.14,1.68,1.68,0,0,1-.73-.42,1.72,1.72,0,0,1-.4-.74,3.9,3.9,0,0,1-.13-1.08v-3.94H342.3l.11-1.66h1v-1.28l2.25-.42V243h2.51Z"/><path class="cls-9" d="M354.34,250.83l-.36-1.14h-.1l-.26.31-.26.32-.23.25a1.36,1.36,0,0,1-.12.12,2.79,2.79,0,0,1-.7.19,6.37,6.37,0,0,1-1,.07,3.56,3.56,0,0,1-1.08-.13,1.34,1.34,0,0,1-.64-.4,1.88,1.88,0,0,1-.39-.72,3.26,3.26,0,0,1-.13-.93,2.42,2.42,0,0,1,.26-1.27,1.94,1.94,0,0,1,.58-.66,2.79,2.79,0,0,1,.68-.31,8,8,0,0,1,1-.25l1.14-.19c.4-.06.82-.1,1.25-.14a4.18,4.18,0,0,0,0-.61,1.15,1.15,0,0,0-.17-.48.89.89,0,0,0-.54-.26,4,4,0,0,0-.84-.07c-.24,0-.49,0-.74,0l-.73.07-.68.09-.58.08v-1.5l.65-.16c.25-.06.52-.12.82-.17s.62-.09,1-.12a8.67,8.67,0,0,1,1-.05,6.9,6.9,0,0,1,1.51.14,2.28,2.28,0,0,1,.94.45,1.82,1.82,0,0,1,.5.83,5.13,5.13,0,0,1,.18,1.46v5.16ZM354,247.3l-.78,0-.77.07a4.52,4.52,0,0,0-.63.09.73.73,0,0,0-.34.12,1.08,1.08,0,0,0-.21.78,1.05,1.05,0,0,0,.23.78.68.68,0,0,0,.35.17,3.36,3.36,0,0,0,.63.06,6.11,6.11,0,0,0,.86-.06,4.54,4.54,0,0,0,.66-.12Z"/><path class="cls-9" d="M374.13,250.83h-3.41L369,242.5h-.18l-2.08,8.33h-3.37l-2.22-10.5h2.4l1.57,8.33h.26l2-8.33h3.23l1.71,8.33h.28l1.74-8.33h2.35Z"/><path class="cls-9" d="M382.45,250.83l-.36-1.14H382l-.26.31-.26.32-.23.25-.12.12a2.79,2.79,0,0,1-.7.19,6.37,6.37,0,0,1-1,.07,3.56,3.56,0,0,1-1.08-.13,1.34,1.34,0,0,1-.64-.4,1.88,1.88,0,0,1-.39-.72,3.26,3.26,0,0,1-.13-.93,2.42,2.42,0,0,1,.26-1.27,1.94,1.94,0,0,1,.58-.66,2.79,2.79,0,0,1,.68-.31,7.51,7.51,0,0,1,1-.25l1.14-.19c.4-.06.82-.1,1.25-.14a4.18,4.18,0,0,0-.05-.61,1.15,1.15,0,0,0-.17-.48.89.89,0,0,0-.54-.26,4,4,0,0,0-.84-.07c-.24,0-.49,0-.74,0l-.73.07-.68.09-.58.08v-1.5l.65-.16c.25-.06.52-.12.82-.17s.62-.09,1-.12a8.67,8.67,0,0,1,1-.05,6.9,6.9,0,0,1,1.51.14,2.28,2.28,0,0,1,.94.45,1.82,1.82,0,0,1,.5.83,5.13,5.13,0,0,1,.18,1.46v5.16Zm-.38-3.53-.78,0-.77.07a4.36,4.36,0,0,0-.62.09.73.73,0,0,0-.35.12,1.13,1.13,0,0,0-.21.78,1.05,1.05,0,0,0,.23.78.68.68,0,0,0,.35.17,3.36,3.36,0,0,0,.63.06,6.11,6.11,0,0,0,.86-.06,4.54,4.54,0,0,0,.66-.12Z"/><path class="cls-9" d="M388.29,243l.42,1.26h.1L389,244l.24-.34.23-.29a1.14,1.14,0,0,1,.15-.16,2.35,2.35,0,0,1,.57-.23,3.53,3.53,0,0,1,.91-.1,5.85,5.85,0,0,1,.73,0V245l-.6-.12a6.07,6.07,0,0,0-.85-.06,4.2,4.2,0,0,0-.93.1,2.48,2.48,0,0,0-.73.27v5.69h-2.24V243Z"/><path class="cls-9" d="M392.54,247.14a4.84,4.84,0,0,1,1-3.3,3.88,3.88,0,0,1,3-1.06,5.35,5.35,0,0,1,1.59.21,2.3,2.3,0,0,1,1.61,1.69,5.74,5.74,0,0,1,.18,1.49v1.24h-5.06a3.68,3.68,0,0,0,.11.82,1.16,1.16,0,0,0,.32.57,1.53,1.53,0,0,0,.64.34,4.15,4.15,0,0,0,1.06.11,13.07,13.07,0,0,0,1.53-.08l1.14-.12-.2,1.49q-.56.15-1.32.3a9,9,0,0,1-1.72.14,5.69,5.69,0,0,1-1.83-.24,2.86,2.86,0,0,1-1.2-.73,2.76,2.76,0,0,1-.65-1.2A6.21,6.21,0,0,1,392.54,247.14Zm3.83-2.82a1.44,1.44,0,0,0-1.12.38,2.26,2.26,0,0,0-.38,1.31h2.83v-.22a1.8,1.8,0,0,0-.3-1.1A1.21,1.21,0,0,0,396.37,244.32Z"/><path class="cls-9" d="M406.89,250.83v-4.57a4,4,0,0,0-.06-.84.89.89,0,0,0-.26-.53,1.71,1.71,0,0,0-1.16-.31,3.66,3.66,0,0,0-.81.09,2.54,2.54,0,0,0-.66.21v6h-2.27V239.57h2.27v4.52h.1l.2-.25.25-.27a2.49,2.49,0,0,1,.23-.23.85.85,0,0,1,.19-.14,2.22,2.22,0,0,1,.72-.26,5.77,5.77,0,0,1,1.1-.1,4.25,4.25,0,0,1,1.12.14,1.91,1.91,0,0,1,.73.42,1.82,1.82,0,0,1,.46.93,7.17,7.17,0,0,1,.11,1.31v5.19Z"/><path class="cls-9" d="M419,246.74a6.35,6.35,0,0,1-.32,2.07,3.13,3.13,0,0,1-.86,1.34,4.32,4.32,0,0,1-3,.83,5.92,5.92,0,0,1-1.82-.24,2.7,2.7,0,0,1-1.11-.67,3,3,0,0,1-.66-1.12,5.81,5.81,0,0,1-.25-1.9,5.67,5.67,0,0,1,.33-2.08,3.31,3.31,0,0,1,.87-1.31,3.15,3.15,0,0,1,1.19-.65,6,6,0,0,1,1.78-.23,5.72,5.72,0,0,1,1.79.23,2.69,2.69,0,0,1,1.09.62,3,3,0,0,1,.69,1.15A6.14,6.14,0,0,1,419,246.74Zm-4,2.52a2.86,2.86,0,0,0,.77-.1,1.44,1.44,0,0,0,.54-.3,1.73,1.73,0,0,0,.35-.72,4.67,4.67,0,0,0,.14-1.24,5.59,5.59,0,0,0-.12-1.29,1.89,1.89,0,0,0-.32-.67,1.6,1.6,0,0,0-1.24-.39,2.26,2.26,0,0,0-.78.1,1.18,1.18,0,0,0-.5.28,1.62,1.62,0,0,0-.37.71,4.72,4.72,0,0,0-.15,1.3,6.6,6.6,0,0,0,.1,1.17,1.47,1.47,0,0,0,.3.7,1.25,1.25,0,0,0,.51.33,2.06,2.06,0,0,0,.78.12Z"/><path class="cls-9" d="M426.4,250.83l-.41-1.2h-.11a2.8,2.8,0,0,0-.21.26l-.29.34-.27.3-.15.15a2.7,2.7,0,0,1-.69.18,6.19,6.19,0,0,1-1,.08,3.5,3.5,0,0,1-1.11-.15,1.8,1.8,0,0,1-.72-.42,1.87,1.87,0,0,1-.5-.9,5.29,5.29,0,0,1-.14-1.26V243H423v4.58a4.41,4.41,0,0,0,.05.81,1,1,0,0,0,.24.52,1.62,1.62,0,0,0,1.11.3,4.35,4.35,0,0,0,.88-.07c.23,0,.45-.1.67-.16v-6h2.27v7.85Z"/><path class="cls-9" d="M436.15,248.4a3.55,3.55,0,0,1-.16,1.13,1.76,1.76,0,0,1-.57.8,2.58,2.58,0,0,1-1.05.48,6.76,6.76,0,0,1-1.62.17,14.52,14.52,0,0,1-1.47-.1c-.48-.07-.89-.14-1.22-.21v-1.52l.49.08.59.08.64.05c.22,0,.43,0,.62,0a5.1,5.1,0,0,0,.78,0,1.92,1.92,0,0,0,.48-.15.51.51,0,0,0,.23-.25.8.8,0,0,0,.07-.34.67.67,0,0,0-.14-.45,1.35,1.35,0,0,0-.46-.24l-.86-.25a7.58,7.58,0,0,1-1.3-.42,1.77,1.77,0,0,1-.73-.54,1.58,1.58,0,0,1-.29-.58,4,4,0,0,1-.09-.84,3,3,0,0,1,.17-1,1.83,1.83,0,0,1,.55-.79,2.9,2.9,0,0,1,1-.5,6.09,6.09,0,0,1,1.53-.17,12.36,12.36,0,0,1,1.5.07c.44.06.8.11,1.08.17v1.55c-.29-.05-.63-.08-1-.11s-.78,0-1.19,0a4.71,4.71,0,0,0-.75,0,1.39,1.39,0,0,0-.45.14.54.54,0,0,0-.21.24.87.87,0,0,0-.06.32,1.94,1.94,0,0,0,0,.24.42.42,0,0,0,.11.18.85.85,0,0,0,.39.25,8,8,0,0,0,.87.25c.43.1.86.22,1.28.36a2.08,2.08,0,0,1,.76.44,1.64,1.64,0,0,1,.35.58A2.67,2.67,0,0,1,436.15,248.4Z"/><path class="cls-9" d="M437.51,247.14a4.84,4.84,0,0,1,1-3.3,3.88,3.88,0,0,1,3-1.06,5.24,5.24,0,0,1,1.58.21,2.29,2.29,0,0,1,1.62,1.69,6.2,6.2,0,0,1,.18,1.49v1.24h-5.06a3.68,3.68,0,0,0,.11.82,1.16,1.16,0,0,0,.32.57,1.53,1.53,0,0,0,.64.34,4.15,4.15,0,0,0,1.06.11,12.79,12.79,0,0,0,1.52-.08l1.15-.12-.2,1.49q-.56.15-1.32.3a9,9,0,0,1-1.72.14,5.65,5.65,0,0,1-1.83-.24,2.86,2.86,0,0,1-1.2-.73,2.76,2.76,0,0,1-.65-1.2A6.21,6.21,0,0,1,437.51,247.14Zm3.82-2.82a1.42,1.42,0,0,0-1.11.38,2.18,2.18,0,0,0-.38,1.31h2.82v-.22a1.86,1.86,0,0,0-.29-1.1A1.25,1.25,0,0,0,441.33,244.32Z"/><path class="cls-9" d="M59.57,41.5c.56,0,1,0,1.48.06a8.59,8.59,0,0,1,1.11.19,3.43,3.43,0,0,1,.82.33,2.89,2.89,0,0,1,.62.47,3.47,3.47,0,0,1,.81,1.51,8.47,8.47,0,0,1,.31,2.51A8.18,8.18,0,0,1,64.6,48a7,7,0,0,1-.33,1.25,5.23,5.23,0,0,1-.5,1,3.59,3.59,0,0,1-.64.76,3.49,3.49,0,0,1-1.47.75,8.91,8.91,0,0,1-2.25.23H55.49V41.5Zm-1.79,1.9v6.68h1.33q.53,0,.93,0a5.4,5.4,0,0,0,.69-.08,2.21,2.21,0,0,0,.5-.15,1.48,1.48,0,0,0,.36-.23,2.48,2.48,0,0,0,.56-1,6.2,6.2,0,0,0,.26-1.91A6.6,6.6,0,0,0,62.23,45a2.45,2.45,0,0,0-.48-1,1.48,1.48,0,0,0-.91-.48,7.75,7.75,0,0,0-1.44-.1Z"/><path class="cls-9" d="M71.5,52l-.36-1.13H71l-.26.3-.26.32-.23.25a.46.46,0,0,1-.12.12,2.45,2.45,0,0,1-.69.19,6.61,6.61,0,0,1-1,.08A3.56,3.56,0,0,1,67.41,52a1.34,1.34,0,0,1-.64-.4,1.81,1.81,0,0,1-.39-.72,3.22,3.22,0,0,1-.13-.93,2.44,2.44,0,0,1,.26-1.27,2,2,0,0,1,.58-.66,3.22,3.22,0,0,1,.68-.31,7.92,7.92,0,0,1,1-.24c.35-.07.73-.13,1.14-.19s.82-.11,1.25-.14a4.21,4.21,0,0,0-.05-.62A1,1,0,0,0,70.9,46a.85.85,0,0,0-.54-.27,4.76,4.76,0,0,0-.84-.07l-.74,0-.73.07-.68.08-.58.09v-1.5l.65-.17c.25-.06.53-.11.82-.16a8.91,8.91,0,0,1,1-.13c.33,0,.68,0,1,0a6.35,6.35,0,0,1,1.51.15,2.15,2.15,0,0,1,.94.44,1.88,1.88,0,0,1,.5.83,5.2,5.2,0,0,1,.18,1.47V52Zm-.38-3.53-.78,0c-.27,0-.53,0-.77.06l-.62.09a.86.86,0,0,0-.35.12,1.16,1.16,0,0,0-.21.78,1.07,1.07,0,0,0,.23.79.88.88,0,0,0,.35.17,2.68,2.68,0,0,0,.63,0,8.11,8.11,0,0,0,.86,0,4.53,4.53,0,0,0,.66-.13Z"/><path class="cls-9" d="M80.22,45.8H78v3.49a2.57,2.57,0,0,0,.06.55.7.7,0,0,0,.18.34.61.61,0,0,0,.34.17,3,3,0,0,0,.52,0l.73,0a5.93,5.93,0,0,0,.6,0l-.17,1.54c-.24.06-.55.13-.91.19a8.48,8.48,0,0,1-1.23.09A3.8,3.8,0,0,1,77,52a1.71,1.71,0,0,1-.72-.43,1.66,1.66,0,0,1-.41-.73,4.43,4.43,0,0,1-.13-1.08v-4H74.67l.12-1.65h1V42.86L78,42.44v1.71h2.51Z"/><path class="cls-9" d="M86.71,52l-.36-1.13h-.1l-.25.3-.27.32-.22.25a.49.49,0,0,1-.13.12,2.36,2.36,0,0,1-.69.19,6.61,6.61,0,0,1-1,.08A3.6,3.6,0,0,1,82.62,52a1.45,1.45,0,0,1-.64-.4,1.79,1.79,0,0,1-.38-.72,3.22,3.22,0,0,1-.14-.93,2.66,2.66,0,0,1,.26-1.27A2,2,0,0,1,82.3,48,3.55,3.55,0,0,1,83,47.7a7.77,7.77,0,0,1,1-.24c.35-.07.73-.13,1.14-.19s.82-.11,1.25-.14a3.18,3.18,0,0,0,0-.62.9.9,0,0,0-.17-.47.81.81,0,0,0-.54-.27,4.57,4.57,0,0,0-.83-.07l-.74,0-.74.07-.68.08L82,46v-1.5l.64-.17c.25-.06.53-.11.83-.16a8.72,8.72,0,0,1,1-.13c.34,0,.68,0,1,0a6.45,6.45,0,0,1,1.51.15,2.26,2.26,0,0,1,.94.44,2.08,2.08,0,0,1,.5.83,4.85,4.85,0,0,1,.17,1.47V52Zm-.37-3.53-.79,0c-.27,0-.53,0-.77.06l-.62.09a.82.82,0,0,0-.34.12,1.06,1.06,0,0,0-.21.78,1.11,1.11,0,0,0,.22.79.92.92,0,0,0,.36.17,2.56,2.56,0,0,0,.62,0,8.46,8.46,0,0,0,.87,0,5.13,5.13,0,0,0,.66-.13Z"/><path class="cls-9" d="M45.83,66.87h5l-.43,1.93H43.56V58.3h2.27Z"/><path class="cls-9" d="M59.74,64.71a5.79,5.79,0,0,1-.32,2.07,3.24,3.24,0,0,1-.85,1.35,4.32,4.32,0,0,1-3,.82,5.59,5.59,0,0,1-1.82-.24A2.73,2.73,0,0,1,52.66,68,2.87,2.87,0,0,1,52,66.92a5.78,5.78,0,0,1-.26-1.9,5.71,5.71,0,0,1,.34-2.08,3.07,3.07,0,0,1,2-2,7,7,0,0,1,3.57,0,2.82,2.82,0,0,1,1.1.63,2.94,2.94,0,0,1,.68,1.14A5.94,5.94,0,0,1,59.74,64.71Zm-4,2.52a2.51,2.51,0,0,0,.77-.1,1.22,1.22,0,0,0,.53-.3,1.6,1.6,0,0,0,.36-.71,4.79,4.79,0,0,0,.13-1.25,4.7,4.7,0,0,0-.12-1.29,1.71,1.71,0,0,0-.31-.67,1.63,1.63,0,0,0-1.25-.39,2.51,2.51,0,0,0-.77.1,1.05,1.05,0,0,0-.5.29,1.6,1.6,0,0,0-.38.7,4.76,4.76,0,0,0-.14,1.3,5.23,5.23,0,0,0,.1,1.18,1.54,1.54,0,0,0,.29.7,1.3,1.3,0,0,0,.51.32A2.09,2.09,0,0,0,55.7,67.23Z"/><path class="cls-9" d="M66.39,68.8,66,67.67h-.1l-.25.3-.27.32-.22.25a.49.49,0,0,1-.13.12,2.36,2.36,0,0,1-.69.19,6.61,6.61,0,0,1-1,.08,3.6,3.6,0,0,1-1.08-.14,1.39,1.39,0,0,1-.64-.4,1.94,1.94,0,0,1-.39-.72,3.22,3.22,0,0,1-.13-.93,2.66,2.66,0,0,1,.26-1.27,2,2,0,0,1,.58-.66,3.55,3.55,0,0,1,.69-.31,7.77,7.77,0,0,1,.95-.24c.35-.07.73-.13,1.14-.19s.82-.11,1.25-.14a3.18,3.18,0,0,0-.05-.62.9.9,0,0,0-.17-.47.81.81,0,0,0-.54-.27,4.65,4.65,0,0,0-.83-.07l-.75,0-.73.07-.68.08-.57.09v-1.5l.64-.17c.25-.06.53-.11.83-.16a8.72,8.72,0,0,1,1-.13c.33,0,.68-.05,1-.05a6.45,6.45,0,0,1,1.51.15,2.26,2.26,0,0,1,.94.44,2.08,2.08,0,0,1,.5.83,4.85,4.85,0,0,1,.17,1.47V68.8ZM66,65.27l-.78,0c-.27,0-.53,0-.77.06l-.62.09a.82.82,0,0,0-.34.12,1.06,1.06,0,0,0-.21.78,1.11,1.11,0,0,0,.22.79.92.92,0,0,0,.36.17,2.56,2.56,0,0,0,.62.05,8.46,8.46,0,0,0,.87-.05,4.67,4.67,0,0,0,.65-.13Z"/><path class="cls-9" d="M75.65,57.56h2.27V68.8H76l-.32-1.15h-.11l-.26.3-.27.3-.25.26-.18.16a2,2,0,0,1-.63.2A3.91,3.91,0,0,1,73,69a2.85,2.85,0,0,1-2-.65,2.78,2.78,0,0,1-.66-1.17,7.07,7.07,0,0,1-.23-2A6.38,6.38,0,0,1,70.4,63a3.26,3.26,0,0,1,.89-1.38,3.6,3.6,0,0,1,2.48-.77,6.67,6.67,0,0,1,1.09.08l.79.14Zm-3.26,7.38a2.78,2.78,0,0,0,.46,1.94,1,1,0,0,0,.54.3,2.44,2.44,0,0,0,.76.09,4.47,4.47,0,0,0,.82-.08,4.07,4.07,0,0,0,.68-.2V62.6L75,62.54l-.74,0a3.43,3.43,0,0,0-.78.07,1.29,1.29,0,0,0-.56.28,1.53,1.53,0,0,0-.43.75A4.49,4.49,0,0,0,72.39,64.94Z"/><path class="cls-9" d="M79.74,65.12a4.77,4.77,0,0,1,1-3.3,3.94,3.94,0,0,1,3-1.07,5.33,5.33,0,0,1,1.58.21,2.32,2.32,0,0,1,1.61,1.69,5.38,5.38,0,0,1,.18,1.49v1.25H82a3.85,3.85,0,0,0,.11.82,1.13,1.13,0,0,0,.32.56,1.42,1.42,0,0,0,.64.34,4.2,4.2,0,0,0,1.06.11,13.07,13.07,0,0,0,1.53-.08L86.85,67l-.2,1.48c-.38.1-.82.2-1.33.3a9.79,9.79,0,0,1-1.71.15,6,6,0,0,1-1.83-.25,2.69,2.69,0,0,1-1.86-1.93A6.17,6.17,0,0,1,79.74,65.12Zm3.82-2.83a1.44,1.44,0,0,0-1.12.38A2.28,2.28,0,0,0,82.06,64h2.83v-.22a1.75,1.75,0,0,0-.3-1.09A1.24,1.24,0,0,0,83.56,62.29Z"/><path class="cls-9" d="M90.67,61l.42,1.26h.1l.19-.27.24-.34.23-.29.15-.15a2,2,0,0,1,.57-.24,4,4,0,0,1,.91-.1,5.84,5.84,0,0,1,.73,0v2.05l-.6-.12a4.86,4.86,0,0,0-.85-.06,4.2,4.2,0,0,0-.93.1,2.58,2.58,0,0,0-.72.26v5.7H88.87V61Z"/><path class="cls-9" d="M101,66.38a3.28,3.28,0,0,1-.17,1.12,1.72,1.72,0,0,1-.57.81,2.65,2.65,0,0,1-1.05.48A6.72,6.72,0,0,1,97.6,69a12.1,12.1,0,0,1-1.47-.1c-.49-.07-.89-.14-1.22-.21V67.12a4.56,4.56,0,0,0,.49.08l.59.08.63.06.63,0a4.9,4.9,0,0,0,.77,0,1.34,1.34,0,0,0,.48-.15.51.51,0,0,0,.24-.24,1,1,0,0,0,.06-.35.55.55,0,0,0-.14-.44,1,1,0,0,0-.45-.24l-.86-.25a9.39,9.39,0,0,1-1.3-.42,1.81,1.81,0,0,1-.73-.55,1.44,1.44,0,0,1-.29-.58,2.9,2.9,0,0,1-.09-.83,2.81,2.81,0,0,1,.17-1,1.74,1.74,0,0,1,.55-.78,2.59,2.59,0,0,1,1-.5,5.62,5.62,0,0,1,1.53-.18,12.56,12.56,0,0,1,1.5.08c.44,0,.8.1,1.08.16v1.55c-.29,0-.63-.08-1-.11s-.78,0-1.18,0a4.85,4.85,0,0,0-.76.05,1.33,1.33,0,0,0-.44.14.43.43,0,0,0-.21.23.87.87,0,0,0-.06.32,1,1,0,0,0,0,.24.4.4,0,0,0,.1.18.78.78,0,0,0,.39.25c.29.1.58.19.87.26a11.55,11.55,0,0,1,1.28.35,2,2,0,0,1,.76.44,1.54,1.54,0,0,1,.35.59A2.9,2.9,0,0,1,101,66.38Z"/><path class="cls-9" d="M601.11,48.88a3.59,3.59,0,0,1-.3,1.58,2.68,2.68,0,0,1-.7,1,2.71,2.71,0,0,1-1.12.44,7.61,7.61,0,0,1-1.43.13H592.9V41.5h4.44a5.1,5.1,0,0,1,2.41.38,2.08,2.08,0,0,1,.86,2,2.63,2.63,0,0,1-.19,1.11,1.84,1.84,0,0,1-.34.57l-.24.15-.32.17-.32.17-.28.14v.1a2.71,2.71,0,0,1,.41.09l.46.14.42.17a2.2,2.2,0,0,1,.32.21,1.53,1.53,0,0,1,.43.75A4.23,4.23,0,0,1,601.11,48.88Zm-2.82-4.41a1.28,1.28,0,0,0-.38-1,.73.73,0,0,0-.39-.15l-.59,0h-1.75v2.57h1.65a5.83,5.83,0,0,0,.59,0,1.06,1.06,0,0,0,.42-.12.82.82,0,0,0,.31-.42A2,2,0,0,0,598.29,44.47Zm.5,4.4a1.94,1.94,0,0,0-.13-.71,1,1,0,0,0-.31-.43,1.18,1.18,0,0,0-.58-.19l-.65,0h-2v2.73h1.9a4.14,4.14,0,0,0,.79,0,1,1,0,0,0,.54-.21,1.25,1.25,0,0,0,.27-.44,2,2,0,0,0,.12-.69Z"/><path class="cls-9" d="M602.82,52V41.5h2.28V52Z"/><path class="cls-9" d="M588,60.2h-3v8.6h-2.27V60.2h-3.15l.35-1.9h8.36Z"/><path class="cls-9" d="M595.74,64.71a6.27,6.27,0,0,1-.32,2.07,3.16,3.16,0,0,1-.86,1.35,4.31,4.31,0,0,1-3,.82,5.63,5.63,0,0,1-1.82-.24,2.8,2.8,0,0,1-1.12-.67,3,3,0,0,1-.65-1.12,5.78,5.78,0,0,1-.26-1.9,5.93,5.93,0,0,1,.34-2.08,3.11,3.11,0,0,1,.87-1.3,3.17,3.17,0,0,1,1.19-.66,6.26,6.26,0,0,1,1.78-.23,6.37,6.37,0,0,1,1.79.23,2.78,2.78,0,0,1,1.09.63,3,3,0,0,1,.69,1.14A6.21,6.21,0,0,1,595.74,64.71Zm-4,2.52a2.51,2.51,0,0,0,.77-.1,1.22,1.22,0,0,0,.53-.3,1.6,1.6,0,0,0,.36-.71,4.79,4.79,0,0,0,.13-1.25,5.12,5.12,0,0,0-.11-1.29,1.89,1.89,0,0,0-.32-.67,1.6,1.6,0,0,0-1.24-.39,2.53,2.53,0,0,0-.78.1,1.1,1.1,0,0,0-.5.29,1.58,1.58,0,0,0-.37.7,4.77,4.77,0,0,0-.15,1.3,5.72,5.72,0,0,0,.1,1.17,1.56,1.56,0,0,0,.29.7,1.25,1.25,0,0,0,.52.33A2,2,0,0,0,591.69,67.23Z"/><path class="cls-9" d="M605.17,64.71a5.79,5.79,0,0,1-.32,2.07,3.14,3.14,0,0,1-.85,1.35,4.32,4.32,0,0,1-3,.82,5.59,5.59,0,0,1-1.82-.24,2.8,2.8,0,0,1-1.12-.67,2.87,2.87,0,0,1-.65-1.12,6.83,6.83,0,0,1,.08-4,3.07,3.07,0,0,1,2.05-2,6,6,0,0,1,1.78-.23,5.68,5.68,0,0,1,1.79.23,2.73,2.73,0,0,1,1.1.62,3,3,0,0,1,.68,1.14A6,6,0,0,1,605.17,64.71Zm-4,2.52a2.51,2.51,0,0,0,.77-.1,1.22,1.22,0,0,0,.53-.3,1.71,1.71,0,0,0,.36-.71,4.79,4.79,0,0,0,.13-1.25,5.64,5.64,0,0,0-.12-1.29,1.86,1.86,0,0,0-.31-.67,1.63,1.63,0,0,0-1.25-.39,2.61,2.61,0,0,0-.78.1,1.16,1.16,0,0,0-.5.29,1.58,1.58,0,0,0-.37.7,4.4,4.4,0,0,0-.14,1.3,5.09,5.09,0,0,0,.1,1.17,1.36,1.36,0,0,0,.29.7,1.22,1.22,0,0,0,.51.33,2.06,2.06,0,0,0,.78.12Z"/><path class="cls-9" d="M609.18,57.54v8.68a1.12,1.12,0,0,0,.22.81.89.89,0,0,0,.66.22,3.4,3.4,0,0,0,.45,0l.4-.06v1.51l-.8.17a5.23,5.23,0,0,1-1,.09,2.29,2.29,0,0,1-1.68-.54,2.57,2.57,0,0,1-.52-1.82v-9Z"/><path class="cls-9" d="M617.89,66.38a3.54,3.54,0,0,1-.17,1.12,1.79,1.79,0,0,1-.57.81,2.72,2.72,0,0,1-1,.48,6.72,6.72,0,0,1-1.61.16,12.13,12.13,0,0,1-1.48-.1c-.48-.07-.89-.14-1.21-.21V67.12a4.56,4.56,0,0,0,.49.08l.58.08.64.06.62,0a5.11,5.11,0,0,0,.78,0,1.34,1.34,0,0,0,.48-.15.56.56,0,0,0,.24-.24,1,1,0,0,0,.06-.35.55.55,0,0,0-.14-.44,1,1,0,0,0-.46-.24l-.86-.25a8.45,8.45,0,0,1-1.29-.42,1.92,1.92,0,0,1-.74-.55,1.56,1.56,0,0,1-.28-.58,2.9,2.9,0,0,1-.09-.83,3,3,0,0,1,.16-1,1.69,1.69,0,0,1,.56-.78,2.55,2.55,0,0,1,1-.5,5.74,5.74,0,0,1,1.54-.18,12.56,12.56,0,0,1,1.5.08c.44,0,.8.1,1.08.16v1.55c-.29,0-.63-.08-1-.11s-.78,0-1.18,0a4.77,4.77,0,0,0-.76.05,1.39,1.39,0,0,0-.45.14.47.47,0,0,0-.21.23.7.7,0,0,0,0,.32,1,1,0,0,0,0,.24.32.32,0,0,0,.1.18.78.78,0,0,0,.39.25,8,8,0,0,0,.87.26,11.55,11.55,0,0,1,1.28.35,2.08,2.08,0,0,1,.76.44,1.73,1.73,0,0,1,.35.58A3,3,0,0,1,617.89,66.38Z"/><path class="cls-3" d="M535,190v33a3,3,0,0,0,3,3H660a3,3,0,0,0,3-3V133a3,3,0,0,0-3-3H538a3,3,0,0,0-3,3v33"/><path class="cls-8" d="M488,58a1,1,0,1,0-1,1,1,1,0,0,0,1-1h2a3,3,0,1,1-3-3,3,3,0,0,1,3,3h13a8,8,0,0,1,8,8V170a8,8,0,0,0,8,8h16v-4l7,4-7,4v-4h2l-1,2,3-2-3-2,1,2"/><path class="cls-9" d="M586.57,161.5c.56,0,1,0,1.48.06a8.59,8.59,0,0,1,1.11.19,3.43,3.43,0,0,1,.82.33,2.89,2.89,0,0,1,.62.47,3.49,3.49,0,0,1,.81,1.5,8.58,8.58,0,0,1,.31,2.52,8.18,8.18,0,0,1-.12,1.4,7,7,0,0,1-.33,1.25,4.73,4.73,0,0,1-.5,1,3.59,3.59,0,0,1-.64.76,3.51,3.51,0,0,1-1.46.75,9,9,0,0,1-2.25.23H582.5V161.5Zm-1.79,1.9v6.68h1.32c.36,0,.67,0,.94,0a5.4,5.4,0,0,0,.69-.08,2.88,2.88,0,0,0,.5-.15,1.48,1.48,0,0,0,.36-.23,2.48,2.48,0,0,0,.56-1,6.2,6.2,0,0,0,.26-1.91,6.6,6.6,0,0,0-.18-1.66,2.45,2.45,0,0,0-.48-1,1.48,1.48,0,0,0-.91-.48,7.75,7.75,0,0,0-1.44-.1Z"/><path class="cls-9" d="M598.5,172l-.36-1.13H598l-.26.3-.26.32-.23.25a.46.46,0,0,1-.12.12,2.42,2.42,0,0,1-.7.19,6.37,6.37,0,0,1-1,.08,3.56,3.56,0,0,1-1.08-.14,1.34,1.34,0,0,1-.64-.4,1.81,1.81,0,0,1-.39-.72,3.22,3.22,0,0,1-.13-.93,2.44,2.44,0,0,1,.26-1.27,2,2,0,0,1,.58-.66,3.22,3.22,0,0,1,.68-.31,7.92,7.92,0,0,1,1-.24c.35-.07.73-.13,1.14-.19s.82-.11,1.25-.14a4.21,4.21,0,0,0,0-.62,1.11,1.11,0,0,0-.17-.47.85.85,0,0,0-.54-.27,4.76,4.76,0,0,0-.84-.07l-.74,0-.73.07-.68.08-.58.09v-1.5l.65-.17c.25-.06.53-.11.82-.16a8.91,8.91,0,0,1,1-.13c.33,0,.68,0,1,0a6.35,6.35,0,0,1,1.51.15,2.15,2.15,0,0,1,.94.44,1.88,1.88,0,0,1,.5.83,5.2,5.2,0,0,1,.18,1.47V172Zm-.38-3.53-.78,0c-.27,0-.53,0-.77.06l-.63.09a.87.87,0,0,0-.34.12,1.16,1.16,0,0,0-.21.78,1.13,1.13,0,0,0,.22.79,1,1,0,0,0,.36.17,2.64,2.64,0,0,0,.62,0,8.14,8.14,0,0,0,.87,0,4.53,4.53,0,0,0,.66-.13Z"/><path class="cls-9" d="M607.22,165.8H605v3.49a2.57,2.57,0,0,0,.06.55.7.7,0,0,0,.18.34.61.61,0,0,0,.34.17,3,3,0,0,0,.52,0l.73,0a5.93,5.93,0,0,0,.6-.05l-.17,1.54c-.24.06-.55.13-.92.19a8.25,8.25,0,0,1-1.22.09A3.76,3.76,0,0,1,604,172a1.81,1.81,0,0,1-.73-.43,1.75,1.75,0,0,1-.4-.73,4,4,0,0,1-.13-1.08V165.8h-1.1l.11-1.65h1v-1.29l2.26-.42v1.71h2.5Z"/><path class="cls-9" d="M613.71,172l-.36-1.13h-.1l-.25.3-.27.32-.22.25a.49.49,0,0,1-.13.12,2.36,2.36,0,0,1-.69.19,6.61,6.61,0,0,1-1,.08,3.6,3.6,0,0,1-1.08-.14,1.45,1.45,0,0,1-.64-.4,1.94,1.94,0,0,1-.39-.72,3.22,3.22,0,0,1-.13-.93,2.66,2.66,0,0,1,.26-1.27,2,2,0,0,1,.58-.66,3.55,3.55,0,0,1,.69-.31,7.77,7.77,0,0,1,1-.24c.35-.07.74-.13,1.14-.19s.82-.11,1.25-.14a4.21,4.21,0,0,0,0-.62,1,1,0,0,0-.18-.47.81.81,0,0,0-.54-.27,4.57,4.57,0,0,0-.83-.07c-.25,0-.49,0-.74,0l-.74.07-.68.08L609,166v-1.5l.64-.17.83-.16a8.72,8.72,0,0,1,.95-.13c.34,0,.68,0,1,0a6.45,6.45,0,0,1,1.51.15,2.26,2.26,0,0,1,.94.44,2,2,0,0,1,.5.83,4.85,4.85,0,0,1,.17,1.47V172Zm-.37-3.53-.79,0c-.27,0-.53,0-.77.06l-.62.09a.82.82,0,0,0-.34.12,1.11,1.11,0,0,0-.22.78,1.17,1.17,0,0,0,.23.79.92.92,0,0,0,.36.17,2.56,2.56,0,0,0,.62,0,8.46,8.46,0,0,0,.87,0,4.67,4.67,0,0,0,.65-.13Z"/><path class="cls-9" d="M579.42,185.78a3.83,3.83,0,0,1-.26,1.45,2.68,2.68,0,0,1-.63,1,2.89,2.89,0,0,1-1.3.58,8.06,8.06,0,0,1-2,.2,12.54,12.54,0,0,1-1.84-.11,8.31,8.31,0,0,1-1.48-.32v-1.69l.58.09.76.08.86.07.9,0a8.57,8.57,0,0,0,1.13-.07.79.79,0,0,0,.83-.54A1.3,1.3,0,0,0,577,186a1,1,0,0,0-.29-.86,4.5,4.5,0,0,0-.91-.38l-1.23-.41a12.25,12.25,0,0,1-1.24-.48,2.57,2.57,0,0,1-.9-.63,2.45,2.45,0,0,1-.42-.82,4.4,4.4,0,0,1-.14-1.09,3.71,3.71,0,0,1,.26-1.47,2.67,2.67,0,0,1,.63-.9,2,2,0,0,1,.48-.33,3.41,3.41,0,0,1,.69-.27,7,7,0,0,1,.93-.18,10,10,0,0,1,1.23-.07l.84,0,.81.07.74.1c.24,0,.44.07.6.11v1.79c-.36,0-.79-.09-1.3-.14s-1-.07-1.63-.07a2.89,2.89,0,0,0-1.64.29.84.84,0,0,0-.21.35,1.31,1.31,0,0,0-.07.44,1.48,1.48,0,0,0,0,.47.6.6,0,0,0,.18.33,1.78,1.78,0,0,0,.48.28l.77.29.92.32c.32.1.63.21.92.32a7.28,7.28,0,0,1,.8.37,2,2,0,0,1,.54.4,2.32,2.32,0,0,1,.38.83A4.52,4.52,0,0,1,579.42,185.78Z"/><path class="cls-9" d="M585.27,182.5a4.28,4.28,0,0,0-1.07.11,1.3,1.3,0,0,0-.68.39,3.11,3.11,0,0,0-.45,1.9,4.38,4.38,0,0,0,.14,1.2,1.28,1.28,0,0,0,1,1,4.5,4.5,0,0,0,.9.08c.4,0,.77,0,1.12,0l.92-.1v1.5c-.33.1-.72.2-1.16.3a7.78,7.78,0,0,1-1.53.14,6.6,6.6,0,0,1-1.53-.18,2.62,2.62,0,0,1-1.11-.57,2.68,2.68,0,0,1-.81-1.23,6.85,6.85,0,0,1,0-3.91,3.53,3.53,0,0,1,.82-1.35,3.94,3.94,0,0,1,2.84-1,7.8,7.8,0,0,1,1.45.1c.41.06.75.13,1,.2v1.6l-.81-.09A10.36,10.36,0,0,0,585.27,182.5Z"/><path class="cls-9" d="M591.29,178.52a2,2,0,0,1-.07.55.78.78,0,0,1-.23.38.92.92,0,0,1-.4.15,2.73,2.73,0,0,1-.57,0,2,2,0,0,1-.6-.06,1.13,1.13,0,0,1-.39-.17,1,1,0,0,1-.2-.34,1.6,1.6,0,0,1-.09-.53,1.48,1.48,0,0,1,.12-.59.94.94,0,0,1,.27-.35,1.66,1.66,0,0,1,.35-.13,2.25,2.25,0,0,1,.58-.07,1.64,1.64,0,0,1,.92.21.67.67,0,0,1,.23.35A1.55,1.55,0,0,1,591.29,178.52Zm-2.4,10.28V181h2.23v7.85Z"/><path class="cls-9" d="M593,185.12a4.83,4.83,0,0,1,1-3.3,3.93,3.93,0,0,1,3-1.07,5.35,5.35,0,0,1,1.59.21,2.32,2.32,0,0,1,1.61,1.69,5.79,5.79,0,0,1,.18,1.49v1.25h-5.06a3.85,3.85,0,0,0,.11.82,1.13,1.13,0,0,0,.32.56,1.42,1.42,0,0,0,.64.34,4.15,4.15,0,0,0,1.06.11c.51,0,1,0,1.53-.07s.85-.1,1.14-.12l-.2,1.48q-.55.15-1.32.3a9.79,9.79,0,0,1-1.71.15,6.05,6.05,0,0,1-1.84-.25,2.86,2.86,0,0,1-1.2-.73,2.76,2.76,0,0,1-.65-1.2A6.18,6.18,0,0,1,593,185.12Zm3.83-2.83a1.44,1.44,0,0,0-1.12.38,2.28,2.28,0,0,0-.38,1.31h2.82v-.22a1.68,1.68,0,0,0-.29-1.09A1.25,1.25,0,0,0,596.8,182.29Z"/><path class="cls-9" d="M607.32,188.8v-4.66a2.77,2.77,0,0,0-.08-.76,1.27,1.27,0,0,0-.25-.49.82.82,0,0,0-.44-.23,3,3,0,0,0-.67-.06,5.93,5.93,0,0,0-.84.06,4.26,4.26,0,0,0-.69.15v6H602.1V181h1.8l.44,1.14h.11l.21-.23.28-.29.26-.27a.86.86,0,0,1,.14-.13,2.29,2.29,0,0,1,.71-.24,5.77,5.77,0,0,1,1.1-.1,2.46,2.46,0,0,1,1.85.6,1.85,1.85,0,0,1,.45.88,5.12,5.12,0,0,1,.12,1.24v5.25Z"/><path class="cls-9" d="M615.9,182.5a4.28,4.28,0,0,0-1.07.11,1.3,1.3,0,0,0-.68.39,3,3,0,0,0-.45,1.9,4.38,4.38,0,0,0,.14,1.2,1.27,1.27,0,0,0,1,1,4.43,4.43,0,0,0,.9.08c.4,0,.77,0,1.12,0l.92-.1v1.5c-.33.1-.72.2-1.16.3a7.85,7.85,0,0,1-1.53.14,6.6,6.6,0,0,1-1.53-.18,2.62,2.62,0,0,1-1.11-.57,2.79,2.79,0,0,1-.82-1.23,6.94,6.94,0,0,1,0-3.91,3.3,3.3,0,0,1,.82-1.35,3.94,3.94,0,0,1,2.84-1,8.76,8.76,0,0,1,1.45.1c.41.06.75.13,1,.2v1.6l-.81-.09A10.52,10.52,0,0,0,615.9,182.5Z"/><path class="cls-9" d="M618.89,185.12a4.82,4.82,0,0,1,1-3.3,3.94,3.94,0,0,1,3-1.07,5.28,5.28,0,0,1,1.58.21,2.35,2.35,0,0,1,1.62,1.69,5.78,5.78,0,0,1,.17,1.49v1.25h-5a3.83,3.83,0,0,0,.1.82,1.23,1.23,0,0,0,.33.56,1.44,1.44,0,0,0,.63.34,4.28,4.28,0,0,0,1.07.11c.51,0,1,0,1.52-.07s.85-.1,1.15-.12l-.2,1.48q-.56.15-1.32.3a9.91,9.91,0,0,1-1.72.15,6,6,0,0,1-1.83-.25,2.8,2.8,0,0,1-1.2-.73,2.76,2.76,0,0,1-.65-1.2A6.18,6.18,0,0,1,618.89,185.12Zm3.82-2.83a1.41,1.41,0,0,0-1.11.38,2.29,2.29,0,0,0-.39,1.31H624v-.22a1.75,1.75,0,0,0-.3-1.09A1.24,1.24,0,0,0,622.71,182.29Z"/><path class="cls-10" d="M237.17,43.5a10.59,10.59,0,0,1,1.69.11,2.8,2.8,0,0,1,.92.32,2.07,2.07,0,0,1,.63.83,3.49,3.49,0,0,1,.25,1.36,4.32,4.32,0,0,1-.18,1.29,2.86,2.86,0,0,1-.42.88,2.73,2.73,0,0,1-.3.21l-.42.24-.49.23-.46.19v.1l.29.14a2.55,2.55,0,0,1,.33.17l.3.18a1.3,1.3,0,0,1,.23.18,3.21,3.21,0,0,1,.36.59c.15.28.31.6.48,1s.36.79.54,1.23l.55,1.27h-2.62l-.54-1.36c-.17-.42-.33-.79-.49-1.11s-.27-.54-.42-.8a1.65,1.65,0,0,0-.36-.43,1,1,0,0,0-.55-.2,8.46,8.46,0,0,0-.87-.05h-.48v4h-2.28V43.5Zm-2,4.72h1.28a5.64,5.64,0,0,0,.91-.06,1.35,1.35,0,0,0,.5-.17,1.14,1.14,0,0,0,.37-.47,2.22,2.22,0,0,0,.16-.88,2.45,2.45,0,0,0-.11-.71,1.18,1.18,0,0,0-.28-.44,1,1,0,0,0-.48-.2,4.77,4.77,0,0,0-.76,0h-1.6Z"/><path class="cls-10" d="M247.71,54l-.36-1.13h-.1l-.25.3-.27.32-.22.25a.49.49,0,0,1-.13.12,2.36,2.36,0,0,1-.69.19,6.61,6.61,0,0,1-1,.08,3.6,3.6,0,0,1-1.08-.14,1.39,1.39,0,0,1-.64-.4,1.94,1.94,0,0,1-.39-.72,3.22,3.22,0,0,1-.13-.93,2.66,2.66,0,0,1,.26-1.27,2,2,0,0,1,.58-.66,3.55,3.55,0,0,1,.69-.31,7.77,7.77,0,0,1,.95-.24c.35-.07.73-.13,1.14-.19s.82-.11,1.25-.14a3.18,3.18,0,0,0-.05-.62.9.9,0,0,0-.17-.47.81.81,0,0,0-.54-.27,4.65,4.65,0,0,0-.83-.07c-.25,0-.49,0-.74,0l-.74.07-.68.08L243,48v-1.5l.64-.17c.25-.06.53-.11.83-.16a8.72,8.72,0,0,1,1-.13c.33,0,.68,0,1,0a6.48,6.48,0,0,1,1.52.15,2.16,2.16,0,0,1,.93.44,1.88,1.88,0,0,1,.5.83,4.56,4.56,0,0,1,.18,1.47V54Zm-.38-3.53-.78,0c-.27,0-.53,0-.77.06l-.62.09a.91.91,0,0,0-.35.12,1.16,1.16,0,0,0-.21.78,1.17,1.17,0,0,0,.23.79.92.92,0,0,0,.36.17,2.56,2.56,0,0,0,.62,0,8.46,8.46,0,0,0,.87,0,4.67,4.67,0,0,0,.65-.13Z"/><path class="cls-10" d="M261.8,54h-3.08l-1.23-5.91h-.16L255.75,54H252.6L251,46.15h2.27l1,5.88h.21l1.57-5.88H259L260.22,52h.21l1.2-5.88h2.21Z"/><path class="cls-10" d="M235.57,60.3q.84,0,1.47.06a8.45,8.45,0,0,1,1.12.19,3.43,3.43,0,0,1,.82.33,2.89,2.89,0,0,1,.62.47,3.47,3.47,0,0,1,.81,1.51,8.47,8.47,0,0,1,.31,2.51,8.18,8.18,0,0,1-.12,1.4,7,7,0,0,1-.33,1.25,5.23,5.23,0,0,1-.5,1,3.59,3.59,0,0,1-.64.76,3.51,3.51,0,0,1-1.46.75,9,9,0,0,1-2.25.23H231.5V60.3Zm-1.79,1.9v6.68h1.33q.52,0,.93,0a5.4,5.4,0,0,0,.69-.08,2.21,2.21,0,0,0,.5-.15,1.48,1.48,0,0,0,.36-.23,2.48,2.48,0,0,0,.56-1,6.2,6.2,0,0,0,.26-1.91,6.6,6.6,0,0,0-.18-1.66,2.45,2.45,0,0,0-.48-1,1.48,1.48,0,0,0-.91-.48,7.75,7.75,0,0,0-1.44-.1Z"/><path class="cls-10" d="M247.5,70.8l-.36-1.13H247l-.26.3-.26.32-.23.25a.46.46,0,0,1-.12.12,2.42,2.42,0,0,1-.7.19,6.37,6.37,0,0,1-1,.08,3.56,3.56,0,0,1-1.08-.14,1.34,1.34,0,0,1-.64-.4,1.81,1.81,0,0,1-.39-.72,3.22,3.22,0,0,1-.13-.93,2.44,2.44,0,0,1,.26-1.27,2,2,0,0,1,.58-.66,3.22,3.22,0,0,1,.68-.31,7.92,7.92,0,0,1,1-.24c.35-.07.73-.13,1.14-.19s.82-.11,1.25-.14a4.21,4.21,0,0,0-.05-.62,1,1,0,0,0-.17-.47.85.85,0,0,0-.54-.27,4.76,4.76,0,0,0-.84-.07l-.74,0-.73.07-.68.08-.58.09v-1.5l.65-.17c.25-.06.53-.11.82-.16a8.91,8.91,0,0,1,1-.13c.33,0,.68-.05,1-.05a6.35,6.35,0,0,1,1.51.15,2.15,2.15,0,0,1,.94.44,1.88,1.88,0,0,1,.5.83,5.2,5.2,0,0,1,.18,1.47V70.8Zm-.38-3.53-.78,0c-.27,0-.53,0-.77.06l-.63.09a.87.87,0,0,0-.34.12,1.16,1.16,0,0,0-.21.78,1.07,1.07,0,0,0,.23.79.88.88,0,0,0,.35.17,2.68,2.68,0,0,0,.63.05,8.11,8.11,0,0,0,.86-.05,4.53,4.53,0,0,0,.66-.13Z"/><path class="cls-10" d="M256.22,64.6H254v3.49a2.57,2.57,0,0,0,.06.55.7.7,0,0,0,.18.34.61.61,0,0,0,.34.17,3,3,0,0,0,.52,0l.73,0a5.93,5.93,0,0,0,.6,0l-.17,1.54c-.24.06-.55.13-.91.19a8.48,8.48,0,0,1-1.23.09,3.8,3.8,0,0,1-1.11-.14,1.71,1.71,0,0,1-.72-.43,1.66,1.66,0,0,1-.41-.73,4.43,4.43,0,0,1-.13-1.08v-4h-1.1l.11-1.65h1V61.66l2.26-.42V63h2.5Z"/><path class="cls-10" d="M262.71,70.8l-.36-1.13h-.1L262,70l-.27.32-.22.25a.49.49,0,0,1-.13.12,2.36,2.36,0,0,1-.69.19,6.61,6.61,0,0,1-1,.08,3.6,3.6,0,0,1-1.08-.14,1.45,1.45,0,0,1-.64-.4,1.94,1.94,0,0,1-.39-.72,3.6,3.6,0,0,1-.13-.93,2.66,2.66,0,0,1,.26-1.27,2,2,0,0,1,.58-.66,3.55,3.55,0,0,1,.69-.31,7.77,7.77,0,0,1,.95-.24c.35-.07.73-.13,1.14-.19s.82-.11,1.25-.14a3.18,3.18,0,0,0-.05-.62.9.9,0,0,0-.17-.47.81.81,0,0,0-.54-.27,4.57,4.57,0,0,0-.83-.07l-.74,0-.74.07-.68.08-.57.09v-1.5l.64-.17c.25-.06.53-.11.83-.16a8.72,8.72,0,0,1,.95-.13c.34,0,.68-.05,1-.05a6.45,6.45,0,0,1,1.51.15,2.26,2.26,0,0,1,.94.44,2.08,2.08,0,0,1,.5.83,4.85,4.85,0,0,1,.17,1.47V70.8Zm-.37-3.53-.79,0c-.27,0-.53,0-.77.06l-.62.09a.82.82,0,0,0-.34.12,1.06,1.06,0,0,0-.21.78,1.11,1.11,0,0,0,.22.79.92.92,0,0,0,.36.17,2.56,2.56,0,0,0,.62.05,8.46,8.46,0,0,0,.87-.05,5.13,5.13,0,0,0,.66-.13Z"/><path class="cls-8" d="M313,58a1,1,0,1,0-1,1,1,1,0,0,0,1-1h2a3,3,0,1,1-3-3,3,3,0,0,1,3,3h45V54l7,4-7,4V58h2l-1,2,3-2-3-2,1,2"/><line class="cls-11" x1="367" y1="58" x2="486" y2="58"/></svg>